<svg xmlns="http://www.w3.org/2000/svg" xmlns:xlink="http://www.w3.org/1999/xlink" xmlns:lucid="lucid" width="2344" height="3552"><g transform="translate(4796 2180)" lucid:page-tab-id="0_0"><path d="M-5000-2000h7000v3000h-7000z" fill="#fff"/><path d="M-4580-1814a6 6 0 0 1 6-6h1608a6 6 0 0 1 6 6v1100a6 6 0 0 1-6 6h-1608a6 6 0 0 1-6-6z" stroke="#000" stroke-width="2" fill-opacity="0"/><path d="M-4580-1707.2h1620" stroke="#000" stroke-width="2" fill="none"/><use xlink:href="#a" transform="matrix(1,0,0,1,-4572,-1812) translate(710.203125 77.6015625)"/><use xlink:href="#b" transform="matrix(1,0,0,1,-4568,-1699.203125) translate(0 230.7109375)"/><use xlink:href="#c" transform="matrix(1,0,0,1,-4568,-1699.203125) translate(90.859375 230.7109375)"/><use xlink:href="#d" transform="matrix(1,0,0,1,-4568,-1699.203125) translate(136.40625 230.7109375)"/><use xlink:href="#e" transform="matrix(1,0,0,1,-4568,-1699.203125) translate(464.21875 230.7109375)"/><use xlink:href="#f" transform="matrix(1,0,0,1,-4568,-1699.203125) translate(0 346.8671875)"/><use xlink:href="#c" transform="matrix(1,0,0,1,-4568,-1699.203125) translate(398.9453125 346.8671875)"/><use xlink:href="#g" transform="matrix(1,0,0,1,-4568,-1699.203125) translate(444.4921875 346.8671875)"/><use xlink:href="#h" transform="matrix(1,0,0,1,-4568,-1699.203125) translate(0 463.0234375)"/><use xlink:href="#c" transform="matrix(1,0,0,1,-4568,-1699.203125) translate(222.890625 463.0234375)"/><use xlink:href="#i" transform="matrix(1,0,0,1,-4568,-1699.203125) translate(268.4375 463.0234375)"/><use xlink:href="#e" transform="matrix(1,0,0,1,-4568,-1699.203125) translate(515.5078125 463.0234375)"/><use xlink:href="#j" transform="matrix(1,0,0,1,-4568,-1699.203125) translate(0 579.1796875)"/><use xlink:href="#g" transform="matrix(1,0,0,1,-4568,-1699.203125) translate(635.390625 579.1796875)"/><use xlink:href="#k" transform="matrix(1,0,0,1,-4568,-1699.203125) translate(0 695.3359375)"/><use xlink:href="#c" transform="matrix(1,0,0,1,-4568,-1699.203125) translate(165.2734375 695.3359375)"/><use xlink:href="#i" transform="matrix(1,0,0,1,-4568,-1699.203125) translate(210.8203125 695.3359375)"/><use xlink:href="#l" transform="matrix(1,0,0,1,-4568,-1699.203125) translate(457.890625 695.3359375)"/><use xlink:href="#m" transform="matrix(1,0,0,1,-4568,-1699.203125) translate(750.390625 695.3359375)"/><use xlink:href="#n" transform="matrix(1,0,0,1,-4568,-1699.203125) translate(795.9375 695.3359375)"/><use xlink:href="#o" transform="matrix(1,0,0,1,-4568,-1699.203125) translate(0 811.4921875)"/><path d="M-4580-34a6 6 0 0 1 6-6h1608a6 6 0 0 1 6 6v984a6 6 0 0 1-6 6h-1608a6 6 0 0 1-6-6z" stroke="#000" stroke-width="2" fill-opacity="0"/><path d="M-4580 72.8h1620" stroke="#000" stroke-width="2" fill="none"/><g><use xlink:href="#p" transform="matrix(1,0,0,1,-4572,-32) translate(552.1953125 77.6015625)"/></g><g><use xlink:href="#b" transform="matrix(1,0,0,1,-4568,80.796875) translate(0 230.7890625)"/><use xlink:href="#c" transform="matrix(1,0,0,1,-4568,80.796875) translate(90.859375 230.7890625)"/><use xlink:href="#d" transform="matrix(1,0,0,1,-4568,80.796875) translate(136.40625 230.7890625)"/><use xlink:href="#e" transform="matrix(1,0,0,1,-4568,80.796875) translate(464.21875 230.7890625)"/><use xlink:href="#q" transform="matrix(1,0,0,1,-4568,80.796875) translate(0 346.9453125)"/><use xlink:href="#c" transform="matrix(1,0,0,1,-4568,80.796875) translate(231.40625 346.9453125)"/><use xlink:href="#r" transform="matrix(1,0,0,1,-4568,80.796875) translate(276.953125 346.9453125)"/><use xlink:href="#s" transform="matrix(1,0,0,1,-4568,80.796875) translate(0 463.1015625)"/><use xlink:href="#c" transform="matrix(1,0,0,1,-4568,80.796875) translate(214.5703125 463.1015625)"/><use xlink:href="#t" transform="matrix(1,0,0,1,-4568,80.796875) translate(260.1171875 463.1015625)"/><use xlink:href="#u" transform="matrix(1,0,0,1,-4568,80.796875) translate(0 579.2578125)"/><use xlink:href="#i" transform="matrix(1,0,0,1,-4568,80.796875) translate(481.9140625 579.2578125)"/><use xlink:href="#v" transform="matrix(1,0,0,1,-4568,80.796875) translate(728.984375 579.2578125)"/><use xlink:href="#m" transform="matrix(1,0,0,1,-4568,80.796875) translate(1158.7109375 579.2578125)"/><use xlink:href="#w" transform="matrix(1,0,0,1,-4568,80.796875) translate(1204.2578125 579.2578125)"/><use xlink:href="#x" transform="matrix(1,0,0,1,-4568,80.796875) translate(0 695.4140625)"/><use xlink:href="#y" transform="matrix(1,0,0,1,-4568,80.796875) translate(413.203125 695.4140625)"/></g><path d="M-3770-45.82v-633.2" stroke="#3a414a" stroke-width="10" stroke-linejoin="round" fill="none"/><path d="M-3765.03-41h-9.94v-4.95h9.94z" stroke="#3a414a" stroke-width=".05" fill="#3a414a"/><path d="M-3770-697l7.5 13h-15z" stroke="#3a414a" stroke-width="10" fill="#3a414a"/><defs><path d="M750 21c-371 0-615-218-615-544v-967h305v942c0 174 123 299 310 299s309-125 309-299v-942h306v967c0 326-247 544-615 544" id="z"/><path d="M572 22C302 22 117-98 78-306l279-48c29 105 101 156 224 156 114 0 185-48 185-115 0-118-228-130-337-155-215-49-322-150-322-317 0-215 187-347 470-347 265 0 424 116 466 298l-266 47c-24-76-87-130-196-130-98 0-174 46-174 113 0 56 38 95 144 117l201 40c216 44 320 143 320 302 0 220-207 367-500 367" id="A"/><path d="M633 22C291 22 81-200 81-553c0-345 210-579 537-579 292 0 525 185 525 567v84H378c7 183 109 277 260 277 105 0 184-46 216-132l272 51C1071-99 893 22 633 22zM380-669h474c-15-146-94-237-233-237-143 0-229 99-241 237" id="B"/><path d="M128 0v-1118h290v195h12c54-169 184-238 367-200v268c-27-8-86-15-130-15-138 0-239 95-239 234V0H128" id="C"/><g id="a"><use transform="matrix(0.0390625,0,0,0.0390625,0,0)" xlink:href="#z"/><use transform="matrix(0.0390625,0,0,0.0390625,58.5546875,0)" xlink:href="#A"/><use transform="matrix(0.0390625,0,0,0.0390625,103.359375,0)" xlink:href="#B"/><use transform="matrix(0.0390625,0,0,0.0390625,151.015625,0)" xlink:href="#C"/></g><path d="M158 0v-1118h180V0H158zm91-1301c-68 0-125-53-125-119s57-119 125-119c69 0 126 53 126 119s-57 119-126 119" id="D"/><path d="M577 24c-279 0-473-224-473-580 0-354 195-576 474-576 218 0 287 134 324 193h14v-551h180V0H922v-173h-20C865-111 790 24 577 24zm27-161c203 0 314-172 314-421 0-247-108-413-314-413-212 0-317 181-317 413 0 235 108 421 317 421" id="E"/><g id="b"><use transform="matrix(0.0390625,0,0,0.0390625,0,0)" xlink:href="#D"/><use transform="matrix(0.0390625,0,0,0.0390625,19.375,0)" xlink:href="#E"/></g><path d="M295 13c-75 0-135-60-135-135s60-135 135-135 135 60 135 135S370 13 295 13zm0-809c-75 0-135-60-135-135s60-135 135-135 135 60 135 135-60 135-135 135" id="F"/><use transform="matrix(0.0390625,0,0,0.0390625,0,0)" xlink:href="#F" id="c"/><path d="M613 24c-304 0-509-231-509-576 0-350 205-580 509-580 305 0 511 230 511 580 0 345-206 576-511 576zm0-161c226 0 329-195 329-415 0-222-103-419-329-419-223 0-326 196-326 419 0 220 103 415 326 415" id="G"/><path d="M677 24c-213 0-288-135-325-197h-20V0H158v-1490h180v551h14c37-59 106-193 324-193 279 0 474 222 474 576 0 356-194 580-473 580zm-27-161c209 0 317-186 317-421 0-232-105-413-317-413-206 0-314 166-314 413 0 249 111 421 314 421" id="H"/><path d="M157-1118h181V80c1 225-123 350-364 338V252c126 9 184-48 183-172v-1198zm91-183c-68 0-125-53-125-119s57-119 125-119c69 0 126 53 126 119s-57 119-126 119" id="I"/><path d="M628 24c-324 0-524-230-524-574 0-343 198-582 503-582 237 0 487 146 487 559v75H286c9 234 145 362 343 362 132 0 231-58 273-172l174 48C1024-91 857 24 628 24zM287-650h624c-17-190-120-322-304-322-192 0-309 151-320 322" id="J"/><path d="M613 24c-304 0-509-231-509-576 0-350 205-580 509-580 216 0 392 114 453 309l-173 49c-33-115-133-197-280-197-223 0-326 196-326 419 0 220 103 415 326 415 150 0 252-85 285-206l172 49C1010-95 832 24 613 24" id="K"/><path d="M598-1118v154H368v674c0 100 37 144 132 144 23 0 62-6 92-12L629-6c-37 13-88 20-134 20-193 0-307-107-307-290v-688H20v-154h168v-266h180v266h230" id="L"/><path d="M370-1490V0H180v-1490h190" id="M"/><g id="d"><use transform="matrix(0.0390625,0,0,0.0390625,0,0)" xlink:href="#G"/><use transform="matrix(0.0390625,0,0,0.0390625,47.96875,0)" xlink:href="#H"/><use transform="matrix(0.0390625,0,0,0.0390625,96.953125,0)" xlink:href="#I"/><use transform="matrix(0.0390625,0,0,0.0390625,116.328125,0)" xlink:href="#J"/><use transform="matrix(0.0390625,0,0,0.0390625,162.96875,0)" xlink:href="#K"/><use transform="matrix(0.0390625,0,0,0.0390625,208.671875,0)" xlink:href="#L"/><use transform="matrix(0.0390625,0,0,0.0390625,234.84375,0)" xlink:href="#M"/><use transform="matrix(0.0390625,0,0,0.0390625,256.328125,0)" xlink:href="#E"/></g><path d="M750 279c-286 0-388-117-388-391v-228c1-158-59-222-218-220v-182c158 3 218-60 218-218v-230c0-273 102-391 388-391v151c-169-1-222 74-222 243v286c0 117-37 206-205 240v20c168 35 205 125 205 242v284c0 169 52 245 222 245v149" id="N"/><path d="M123 279V130c170 0 222-76 222-245v-284c0-116 37-207 204-242v-20c-167-34-204-123-204-240v-286c0-168-52-243-222-243v-151c285 0 387 118 387 391v230c-1 158 57 219 219 219v180c-164 1-219 64-219 221v228c0 274-102 391-387 391" id="O"/><g id="e"><use transform="matrix(0.0390625,0,0,0.0390625,0,0)" xlink:href="#N"/><use transform="matrix(0.0390625,0,0,0.0390625,34.1015625,0)" xlink:href="#D"/><use transform="matrix(0.0390625,0,0,0.0390625,53.4765625,0)" xlink:href="#E"/><use transform="matrix(0.0390625,0,0,0.0390625,102.4609375,0)" xlink:href="#O"/></g><path d="M537 14c-226 0-379-139-379-422v-710h180v695c0 172 97 275 253 275 160 0 281-109 281-300v-670h181V0H879v-209C806-46 684 14 537 14" id="P"/><path d="M538 24C308 24 148-78 108-271l171-41c32 123 123 178 257 178 156 0 256-77 256-169 0-77-54-128-164-154l-186-44c-203-48-300-148-300-305 0-192 176-326 414-326 230 0 351 112 402 269l-163 42c-31-80-94-158-238-158-133 0-233 69-233 162 0 83 57 129 188 160l169 40c203 48 298 149 298 302 0 196-179 339-441 339" id="Q"/><path d="M158 0v-1118h174v172h12c41-113 157-188 290-188 26 0 70 2 91 3v181c-11-2-60-10-108-10-161 0-279 109-279 260V0H158" id="R"/><path d="M338-670V0H158v-1118h173l1 207c72-158 192-221 342-221 226 0 378 139 378 422V0H872v-695c0-172-96-275-252-275-161 0-282 109-282 300" id="S"/><path d="M471 26C259 26 90-98 90-318c0-256 228-303 435-329 202-27 287-16 287-108 0-139-79-219-234-219-161 0-248 86-283 164l-173-57c86-203 278-265 451-265 150 0 419 46 419 395V0H815v-152h-12C765-73 660 26 471 26zm31-159c199 0 310-134 310-271v-155c-30 35-226 55-295 64-131 17-246 59-246 186 0 116 97 176 231 176" id="T"/><path d="M158 0v-1118h175l1 205c55-151 181-225 313-225 147 0 245 90 285 228 53-141 190-228 352-228 194 0 352 125 352 384V0h-181v-749c0-161-105-225-225-225-151 0-243 103-243 244V0H807v-767c0-124-93-207-219-207-131 0-250 92-250 270V0H158" id="U"/><g id="f"><use transform="matrix(0.0390625,0,0,0.0390625,0,0)" xlink:href="#P"/><use transform="matrix(0.0390625,0,0,0.0390625,47.3046875,0)" xlink:href="#Q"/><use transform="matrix(0.0390625,0,0,0.0390625,89.53125,0)" xlink:href="#J"/><use transform="matrix(0.0390625,0,0,0.0390625,136.171875,0)" xlink:href="#R"/><use transform="matrix(0.0390625,0,0,0.0390625,167.5390625,0)" xlink:href="#S"/><use transform="matrix(0.0390625,0,0,0.0390625,214.8046875,0)" xlink:href="#T"/><use transform="matrix(0.0390625,0,0,0.0390625,259.7265625,0)" xlink:href="#U"/><use transform="matrix(0.0390625,0,0,0.0390625,329.8046875,0)" xlink:href="#J"/></g><path d="M657 26c-323 0-524-166-541-416h195c15 169 171 246 346 246 202 0 356-106 356-265 5-203-294-238-475-293-239-73-380-191-380-389 0-252 224-419 512-419 294 0 499 171 508 396H992c-17-145-151-228-328-228-193 0-321 102-321 242 0 156 175 211 284 241l149 41c160 44 422 134 422 412 0 244-197 432-541 432" id="V"/><path d="M611 442c-248 0-391-105-460-228l146-94c47 65 117 165 314 165 178 0 307-82 307-266v-224h-17C863-141 792-18 576-18c-268 0-472-195-472-546 0-346 197-568 476-568 216 0 288 133 326 193h17v-179h175V29c0 289-215 413-487 413zm-5-620c203 0 314-146 314-390 0-237-108-403-314-403-213 0-319 180-319 403 0 230 109 390 319 390" id="W"/><g id="g"><use transform="matrix(0.0390625,0,0,0.0390625,0,0)" xlink:href="#V"/><use transform="matrix(0.0390625,0,0,0.0390625,51.328125,0)" xlink:href="#L"/><use transform="matrix(0.0390625,0,0,0.0390625,77.5,0)" xlink:href="#R"/><use transform="matrix(0.0390625,0,0,0.0390625,108.8671875,0)" xlink:href="#D"/><use transform="matrix(0.0390625,0,0,0.0390625,128.2421875,0)" xlink:href="#S"/><use transform="matrix(0.0390625,0,0,0.0390625,175.5078125,0)" xlink:href="#W"/></g><path d="M338-1490V0H158v-1490h180" id="X"/><g id="h"><use transform="matrix(0.0390625,0,0,0.0390625,0,0)" xlink:href="#J"/><use transform="matrix(0.0390625,0,0,0.0390625,46.640625,0)" xlink:href="#U"/><use transform="matrix(0.0390625,0,0,0.0390625,116.71875,0)" xlink:href="#T"/><use transform="matrix(0.0390625,0,0,0.0390625,161.640625,0)" xlink:href="#D"/><use transform="matrix(0.0390625,0,0,0.0390625,181.015625,0)" xlink:href="#X"/></g><g id="i"><use transform="matrix(0.0390625,0,0,0.0390625,0,0)" xlink:href="#V"/><use transform="matrix(0.0390625,0,0,0.0390625,51.328125,0)" xlink:href="#L"/><use transform="matrix(0.0390625,0,0,0.0390625,77.5,0)" xlink:href="#R"/><use transform="matrix(0.0390625,0,0,0.0390625,108.8671875,0)" xlink:href="#D"/><use transform="matrix(0.0390625,0,0,0.0390625,128.2421875,0)" xlink:href="#S"/><use transform="matrix(0.0390625,0,0,0.0390625,175.5078125,0)" xlink:href="#W"/></g><path d="M158 418v-1536h174v179h20c37-59 106-193 324-193 279 0 474 222 474 576 0 356-194 580-473 580-213 0-288-135-325-197h-14v591H158zm492-555c209 0 317-186 317-421 0-232-105-413-317-413-206 0-314 166-314 413 0 249 111 421 314 421" id="Y"/><path d="M409 0L70-1118h191c89 329 165 560 243 925 75-353 154-601 240-925h192c85 325 161 564 235 922 77-354 157-598 244-922h191L1267 0h-179c-86-307-176-590-250-913C763-588 675-308 588 0H409" id="Z"/><path d="M934 0v166H0V0h934" id="aa"/><path d="M338-670V0H158v-1490h180v566c73-149 190-208 336-208 226 0 379 139 379 422V0H872v-695c0-172-96-275-252-275-161 0-282 109-282 300" id="ab"/><g id="j"><use transform="matrix(0.0390625,0,0,0.0390625,0,0)" xlink:href="#Y"/><use transform="matrix(0.0390625,0,0,0.0390625,49.765625,0)" xlink:href="#T"/><use transform="matrix(0.0390625,0,0,0.0390625,94.6875,0)" xlink:href="#Q"/><use transform="matrix(0.0390625,0,0,0.0390625,136.9140625,0)" xlink:href="#Q"/><use transform="matrix(0.0390625,0,0,0.0390625,179.140625,0)" xlink:href="#Z"/><use transform="matrix(0.0390625,0,0,0.0390625,243.1640625,0)" xlink:href="#G"/><use transform="matrix(0.0390625,0,0,0.0390625,291.1328125,0)" xlink:href="#R"/><use transform="matrix(0.0390625,0,0,0.0390625,319.921875,0)" xlink:href="#E"/><use transform="matrix(0.0390625,0,0,0.0390625,368.90625,0)" xlink:href="#aa"/><use transform="matrix(0.0390625,0,0,0.0390625,408.0859375,0)" xlink:href="#ab"/><use transform="matrix(0.0390625,0,0,0.0390625,455.390625,0)" xlink:href="#T"/><use transform="matrix(0.0390625,0,0,0.0390625,500.3125,0)" xlink:href="#Q"/><use transform="matrix(0.0390625,0,0,0.0390625,542.5390625,0)" xlink:href="#ab"/><use transform="matrix(0.0390625,0,0,0.0390625,589.84375,0)" xlink:href="#F"/></g><g id="k"><use transform="matrix(0.0390625,0,0,0.0390625,0,0)" xlink:href="#R"/><use transform="matrix(0.0390625,0,0,0.0390625,28.7890625,0)" xlink:href="#G"/><use transform="matrix(0.0390625,0,0,0.0390625,76.7578125,0)" xlink:href="#X"/><use transform="matrix(0.0390625,0,0,0.0390625,96.1328125,0)" xlink:href="#J"/></g><path d="M226 279v-1860h398v153H398V126h226v153H226" id="ac"/><path d="M232-923l-22-567h194l-22 567H232zm340 0l-22-567h194l-22 567H572" id="ad"/><g id="l"><use transform="matrix(0.0390625,0,0,0.0390625,0,0)" xlink:href="#ac"/><use transform="matrix(0.0390625,0,0,0.0390625,29.1796875,0)" xlink:href="#ad"/><use transform="matrix(0.0390625,0,0,0.0390625,66.4453125,0)" xlink:href="#P"/><use transform="matrix(0.0390625,0,0,0.0390625,113.75,0)" xlink:href="#Q"/><use transform="matrix(0.0390625,0,0,0.0390625,155.9765625,0)" xlink:href="#J"/><use transform="matrix(0.0390625,0,0,0.0390625,202.6171875,0)" xlink:href="#R"/><use transform="matrix(0.0390625,0,0,0.0390625,232.734375,0)" xlink:href="#ad"/></g><path d="M128 359l88-567h206L266 359H128" id="ae"/><use transform="matrix(0.0390625,0,0,0.0390625,0,0)" xlink:href="#ae" id="m"/><path d="M123 279V126h226v-1554H123v-153h398V279H123" id="af"/><g id="n"><use transform="matrix(0.0390625,0,0,0.0390625,0,0)" xlink:href="#ad"/><use transform="matrix(0.0390625,0,0,0.0390625,37.265625,0)" xlink:href="#T"/><use transform="matrix(0.0390625,0,0,0.0390625,82.1875,0)" xlink:href="#E"/><use transform="matrix(0.0390625,0,0,0.0390625,131.171875,0)" xlink:href="#U"/><use transform="matrix(0.0390625,0,0,0.0390625,201.25,0)" xlink:href="#D"/><use transform="matrix(0.0390625,0,0,0.0390625,220.625,0)" xlink:href="#S"/><use transform="matrix(0.0390625,0,0,0.0390625,267.890625,0)" xlink:href="#ad"/><use transform="matrix(0.0390625,0,0,0.0390625,305.15625,0)" xlink:href="#af"/></g><g id="o"><use transform="matrix(0.0390625,0,0,0.0390625,0,0)" xlink:href="#Q"/><use transform="matrix(0.0390625,0,0,0.0390625,42.2265625,0)" xlink:href="#P"/><use transform="matrix(0.0390625,0,0,0.0390625,89.53125,0)" xlink:href="#H"/><use transform="matrix(0.0390625,0,0,0.0390625,138.515625,0)" xlink:href="#Q"/><use transform="matrix(0.0390625,0,0,0.0390625,180.7421875,0)" xlink:href="#K"/><use transform="matrix(0.0390625,0,0,0.0390625,226.4453125,0)" xlink:href="#R"/><use transform="matrix(0.0390625,0,0,0.0390625,257.8125,0)" xlink:href="#D"/><use transform="matrix(0.0390625,0,0,0.0390625,277.1875,0)" xlink:href="#Y"/><use transform="matrix(0.0390625,0,0,0.0390625,326.171875,0)" xlink:href="#L"/><use transform="matrix(0.0390625,0,0,0.0390625,352.34375,0)" xlink:href="#D"/><use transform="matrix(0.0390625,0,0,0.0390625,371.71875,0)" xlink:href="#G"/><use transform="matrix(0.0390625,0,0,0.0390625,419.6875,0)" xlink:href="#S"/><use transform="matrix(0.0390625,0,0,0.0390625,466.953125,0)" xlink:href="#Q"/><use transform="matrix(0.0390625,0,0,0.0390625,509.1796875,0)" xlink:href="#F"/><use transform="matrix(0.0390625,0,0,0.0390625,532.2265625,0)" xlink:href="#V"/><use transform="matrix(0.0390625,0,0,0.0390625,583.5546875,0)" xlink:href="#P"/><use transform="matrix(0.0390625,0,0,0.0390625,630.859375,0)" xlink:href="#H"/><use transform="matrix(0.0390625,0,0,0.0390625,679.84375,0)" xlink:href="#Q"/><use transform="matrix(0.0390625,0,0,0.0390625,722.0703125,0)" xlink:href="#K"/><use transform="matrix(0.0390625,0,0,0.0390625,767.7734375,0)" xlink:href="#R"/><use transform="matrix(0.0390625,0,0,0.0390625,799.140625,0)" xlink:href="#D"/><use transform="matrix(0.0390625,0,0,0.0390625,818.515625,0)" xlink:href="#Y"/><use transform="matrix(0.0390625,0,0,0.0390625,867.5,0)" xlink:href="#L"/><use transform="matrix(0.0390625,0,0,0.0390625,893.671875,0)" xlink:href="#D"/><use transform="matrix(0.0390625,0,0,0.0390625,913.046875,0)" xlink:href="#G"/><use transform="matrix(0.0390625,0,0,0.0390625,961.015625,0)" xlink:href="#S"/><use transform="matrix(0.0390625,0,0,0.0390625,1008.28125,0)" xlink:href="#ac"/><use transform="matrix(0.0390625,0,0,0.0390625,1037.4609375,0)" xlink:href="#af"/></g><path d="M681 22C323 22 94-145 85-462h297c10 151 131 226 296 226 163 0 271-77 271-190 0-102-95-149-257-189l-164-41c-252-61-403-188-403-405 0-269 236-449 560-449 330 0 546 183 551 445H941c-11-119-106-188-259-188-156 0-244 72-244 172-3 156 226 185 373 221 250 61 445 186 445 436 0 271-213 446-575 446" id="ag"/><path d="M513 14c-232 0-385-159-385-421v-711h300v659c0 139 76 222 202 222 127 0 217-86 217-234v-647h301V0H864l-4-232C797-74 683 14 513 14" id="ah"/><path d="M754 19C571 19 479-89 437-179h-14V0H128v-1490h300v560h9c41-89 129-202 319-202 248 0 453 193 453 575 0 372-197 576-455 576zm-92-241c156 0 240-139 240-336 0-196-83-334-240-334-154 0-241 131-241 334 0 202 88 336 241 336" id="ai"/><path d="M628 22C291 22 81-210 81-554c0-346 210-578 547-578 265 0 455 142 497 372l-279 52c-25-116-99-188-215-188-160 0-244 139-244 341 0 200 84 341 244 341 116 0 193-74 217-195l279 51C1085-123 896 22 628 22" id="aj"/><path d="M128 0v-1118h300V0H128zm150-1264c-91 0-165-68-165-154 0-85 74-154 165-154 90 0 165 69 165 154 0 86-75 154-165 154" id="ak"/><path d="M128 418v-1536h295v188h14c41-89 129-202 319-202 248 0 453 193 453 575 0 372-197 576-455 576-183 0-275-108-317-198h-9v597H128zm534-640c156 0 240-139 240-336 0-196-83-334-240-334-154 0-241 131-241 334 0 202 88 336 241 336" id="al"/><path d="M683-1118v229H474v562c0 71 29 104 102 104 23 0 73-7 95-13l43 225C647 9 580 16 520 16 296 16 174-96 174-301v-588H20v-229h154v-266h300v266h209" id="am"/><path d="M628 22C291 22 81-210 81-554c0-346 210-578 547-578 336 0 547 232 547 578 0 344-211 576-547 576zm0-236c160 0 242-146 242-341 0-197-82-341-242-341S387-753 387-555c0 195 81 341 241 341" id="an"/><path d="M428-647V0H128v-1118h283l4 231c63-156 176-245 348-245 232 0 384 159 384 421V0H847v-659c0-139-76-222-202-222-128 0-217 86-217 234" id="ao"/><g id="p"><use transform="matrix(0.0390625,0,0,0.0390625,0,0)" xlink:href="#ag"/><use transform="matrix(0.0390625,0,0,0.0390625,52.3828125,0)" xlink:href="#ah"/><use transform="matrix(0.0390625,0,0,0.0390625,102.1875,0)" xlink:href="#ai"/><use transform="matrix(0.0390625,0,0,0.0390625,152.6171875,0)" xlink:href="#A"/><use transform="matrix(0.0390625,0,0,0.0390625,197.421875,0)" xlink:href="#aj"/><use transform="matrix(0.0390625,0,0,0.0390625,244.4921875,0)" xlink:href="#C"/><use transform="matrix(0.0390625,0,0,0.0390625,277.65625,0)" xlink:href="#ak"/><use transform="matrix(0.0390625,0,0,0.0390625,299.3359375,0)" xlink:href="#al"/><use transform="matrix(0.0390625,0,0,0.0390625,349.765625,0)" xlink:href="#am"/><use transform="matrix(0.0390625,0,0,0.0390625,379.0625,0)" xlink:href="#ak"/><use transform="matrix(0.0390625,0,0,0.0390625,400.7421875,0)" xlink:href="#an"/><use transform="matrix(0.0390625,0,0,0.0390625,449.8046875,0)" xlink:href="#ao"/></g><g id="q"><use transform="matrix(0.0390625,0,0,0.0390625,0,0)" xlink:href="#S"/><use transform="matrix(0.0390625,0,0,0.0390625,47.265625,0)" xlink:href="#T"/><use transform="matrix(0.0390625,0,0,0.0390625,92.1875,0)" xlink:href="#U"/><use transform="matrix(0.0390625,0,0,0.0390625,162.265625,0)" xlink:href="#J"/></g><g id="r"><use transform="matrix(0.0390625,0,0,0.0390625,0,0)" xlink:href="#V"/><use transform="matrix(0.0390625,0,0,0.0390625,51.328125,0)" xlink:href="#L"/><use transform="matrix(0.0390625,0,0,0.0390625,77.5,0)" xlink:href="#R"/><use transform="matrix(0.0390625,0,0,0.0390625,108.8671875,0)" xlink:href="#D"/><use transform="matrix(0.0390625,0,0,0.0390625,128.2421875,0)" xlink:href="#S"/><use transform="matrix(0.0390625,0,0,0.0390625,175.5078125,0)" xlink:href="#W"/></g><g id="s"><use transform="matrix(0.0390625,0,0,0.0390625,0,0)" xlink:href="#Y"/><use transform="matrix(0.0390625,0,0,0.0390625,48.984375,0)" xlink:href="#R"/><use transform="matrix(0.0390625,0,0,0.0390625,80.3515625,0)" xlink:href="#D"/><use transform="matrix(0.0390625,0,0,0.0390625,99.7265625,0)" xlink:href="#K"/><use transform="matrix(0.0390625,0,0,0.0390625,145.4296875,0)" xlink:href="#J"/></g><g id="t"><use transform="matrix(0.0390625,0,0,0.0390625,0,0)" xlink:href="#M"/><use transform="matrix(0.0390625,0,0,0.0390625,21.484375,0)" xlink:href="#S"/><use transform="matrix(0.0390625,0,0,0.0390625,68.75,0)" xlink:href="#L"/></g><path d="M783 20c-382 0-661-292-661-764 0-473 279-766 661-766 302 0 548 182 601 489h-190c-42-204-217-313-411-313-268 0-476 208-476 590 0 381 209 588 476 588 195 0 369-110 411-313h190c-52 303-296 489-601 489" id="ap"/><path d="M140 405l46-156c120 36 205 19 263-150l32-93L54-1118h197c107 313 237 620 324 950 87-331 219-637 326-950h196L606 167c-68 178-176 259-334 259-64 0-113-12-132-21" id="aq"/><g id="u"><use transform="matrix(0.0390625,0,0,0.0390625,0,0)" xlink:href="#H"/><use transform="matrix(0.0390625,0,0,0.0390625,48.984375,0)" xlink:href="#D"/><use transform="matrix(0.0390625,0,0,0.0390625,68.359375,0)" xlink:href="#X"/><use transform="matrix(0.0390625,0,0,0.0390625,87.734375,0)" xlink:href="#X"/><use transform="matrix(0.0390625,0,0,0.0390625,107.109375,0)" xlink:href="#D"/><use transform="matrix(0.0390625,0,0,0.0390625,126.484375,0)" xlink:href="#S"/><use transform="matrix(0.0390625,0,0,0.0390625,173.75,0)" xlink:href="#W"/><use transform="matrix(0.0390625,0,0,0.0390625,222.8125,0)" xlink:href="#ap"/><use transform="matrix(0.0390625,0,0,0.0390625,281.25,0)" xlink:href="#aq"/><use transform="matrix(0.0390625,0,0,0.0390625,324.6484375,0)" xlink:href="#K"/><use transform="matrix(0.0390625,0,0,0.0390625,370.3515625,0)" xlink:href="#X"/><use transform="matrix(0.0390625,0,0,0.0390625,389.7265625,0)" xlink:href="#J"/><use transform="matrix(0.0390625,0,0,0.0390625,436.3671875,0)" xlink:href="#F"/></g><g id="v"><use transform="matrix(0.0390625,0,0,0.0390625,0,0)" xlink:href="#ac"/><use transform="matrix(0.0390625,0,0,0.0390625,29.1796875,0)" xlink:href="#ad"/><use transform="matrix(0.0390625,0,0,0.0390625,66.4453125,0)" xlink:href="#U"/><use transform="matrix(0.0390625,0,0,0.0390625,136.5234375,0)" xlink:href="#G"/><use transform="matrix(0.0390625,0,0,0.0390625,184.4921875,0)" xlink:href="#S"/><use transform="matrix(0.0390625,0,0,0.0390625,231.7578125,0)" xlink:href="#L"/><use transform="matrix(0.0390625,0,0,0.0390625,257.9296875,0)" xlink:href="#ab"/><use transform="matrix(0.0390625,0,0,0.0390625,305.234375,0)" xlink:href="#X"/><use transform="matrix(0.0390625,0,0,0.0390625,325,0)" xlink:href="#aq"/><use transform="matrix(0.0390625,0,0,0.0390625,369.9609375,0)" xlink:href="#ad"/></g><g id="w"><use transform="matrix(0.0390625,0,0,0.0390625,0,0)" xlink:href="#ad"/><use transform="matrix(0.0390625,0,0,0.0390625,37.265625,0)" xlink:href="#aq"/><use transform="matrix(0.0390625,0,0,0.0390625,80.6640625,0)" xlink:href="#J"/><use transform="matrix(0.0390625,0,0,0.0390625,128.0859375,0)" xlink:href="#T"/><use transform="matrix(0.0390625,0,0,0.0390625,173.0078125,0)" xlink:href="#R"/><use transform="matrix(0.0390625,0,0,0.0390625,204.375,0)" xlink:href="#X"/><use transform="matrix(0.0390625,0,0,0.0390625,224.140625,0)" xlink:href="#aq"/><use transform="matrix(0.0390625,0,0,0.0390625,269.1015625,0)" xlink:href="#ad"/><use transform="matrix(0.0390625,0,0,0.0390625,306.3671875,0)" xlink:href="#af"/></g><path d="M52 0l541-1490h220L1361 0h-200l-149-416H398L254 0H52zm404-582h497c-103-290-145-390-251-756-108 377-145 460-246 756" id="ar"/><g id="x"><use transform="matrix(0.0390625,0,0,0.0390625,0,0)" xlink:href="#K"/><use transform="matrix(0.0390625,0,0,0.0390625,45.703125,0)" xlink:href="#R"/><use transform="matrix(0.0390625,0,0,0.0390625,74.4921875,0)" xlink:href="#J"/><use transform="matrix(0.0390625,0,0,0.0390625,121.9140625,0)" xlink:href="#T"/><use transform="matrix(0.0390625,0,0,0.0390625,166.8359375,0)" xlink:href="#L"/><use transform="matrix(0.0390625,0,0,0.0390625,192.2265625,0)" xlink:href="#J"/><use transform="matrix(0.0390625,0,0,0.0390625,238.8671875,0)" xlink:href="#E"/><use transform="matrix(0.0390625,0,0,0.0390625,287.8515625,0)" xlink:href="#ar"/><use transform="matrix(0.0390625,0,0,0.0390625,341.484375,0)" xlink:href="#L"/><use transform="matrix(0.0390625,0,0,0.0390625,367.65625,0)" xlink:href="#F"/></g><path d="M645 0H180v-1490h484c435 0 692 280 692 742 0 466-257 748-711 748zM370-168h263c363 0 539-218 539-580 0-358-176-574-521-574H370v1154" id="as"/><g id="y"><use transform="matrix(0.0390625,0,0,0.0390625,0,0)" xlink:href="#as"/><use transform="matrix(0.0390625,0,0,0.0390625,57.734375,0)" xlink:href="#T"/><use transform="matrix(0.0390625,0,0,0.0390625,102.65625,0)" xlink:href="#L"/><use transform="matrix(0.0390625,0,0,0.0390625,128.046875,0)" xlink:href="#J"/></g></defs></g></svg>