<svg xmlns="http://www.w3.org/2000/svg" xmlns:xlink="http://www.w3.org/1999/xlink" xmlns:lucid="lucid" width="5262" height="2882"><g transform="translate(3661 1921)" lucid:page-tab-id="0_0"><path d="M-4000-2000h6000v3000h-6000z" fill="#fff"/><path d="M0-1914a6 6 0 0 1 6-6h1588a6 6 0 0 1 6 6V954a6 6 0 0 1-6 6H6a6 6 0 0 1-6-6z" stroke="#000" stroke-width="2" fill="#dfe3e8"/><path d="M-1211.1-1510.42v-.7a68.9 68.9 0 0 1 68.88-68.88 68.9 68.9 0 0 1 68.9 68.9 68.9 68.9 0 0 1-68.9 68.88 68.9 68.9 0 0 1-68.9-68.9v-.68" stroke="#000" stroke-width="10" fill="#fff"/><path d="M-1280-1574a6 6 0 0 1 6-6h263.56a6 6 0 0 1 6 6v586a6 6 0 0 1-6 6H-1274a6 6 0 0 1-6-6z" fill="none"/><path d="M-1142.22-1442.22v221.02l137.78 239.2m-137.78-239.2L-1280-982m0-391.33h275.56" stroke="#000" stroke-width="10" fill="none"/><use xlink:href="#a" transform="matrix(1,0,0,1,-1360,-982.0000000000001) translate(148.712890625 64.58333333333334)"/><path d="M465.66-1894a6 6 0 0 1 6-6h656.68a6 6 0 0 1 6 6v110.94a6 6 0 0 1-6 6H471.66a6 6 0 0 1-6-6z" fill="none"/><use xlink:href="#b" transform="matrix(1,0,0,1,470.6623177083334,-1895) translate(0 90.45182291666666)"/><use xlink:href="#c" transform="matrix(1,0,0,1,470.6623177083334,-1895) translate(509.59635416666663 90.45182291666666)"/><path d="M-1191.1-250.42v-.7a68.9 68.9 0 0 1 68.88-68.88 68.9 68.9 0 0 1 68.9 68.9 68.9 68.9 0 0 1-68.9 68.88 68.9 68.9 0 0 1-68.9-68.9v-.68" stroke="#000" stroke-width="10" fill="#fff"/><path d="M-1260-314a6 6 0 0 1 6-6h263.56a6 6 0 0 1 6 6v586a6 6 0 0 1-6 6H-1254a6 6 0 0 1-6-6z" fill="none"/><path d="M-1122.22-182.22V38.8L-984.44 278m-137.78-239.2L-1260 278m0-391.33h275.56" stroke="#000" stroke-width="10" fill="none"/><use xlink:href="#d" transform="matrix(1,0,0,1,-1340,277.9999999999999) translate(121.90624999999999 64.58333333333334)"/><path d="M580-1467.5c0 95.27-102.98 172.5-230 172.5-127.03 0-230-77.23-230-172.5S222.97-1640 350-1640c127.02 0 230 77.23 230 172.5z" stroke="#6db1ff" stroke-width="2" fill="#edf5ff"/><use xlink:href="#e" transform="matrix(1,0,0,1,120,-1640) translate(134.7315625 191.82291666666669)"/><use xlink:href="#f" transform="matrix(1,0,0,1,120,-1640) translate(261.0857291666667 191.82291666666669)"/><path d="M-1136.2-1270.02l110.12-2.22 89.6-5.58 75.85-7.93 67.44-9.94 63.62-12.12 65.74-15.45 87.16-24.52 222.3-66.43 65.73-15.45 63.6-12.13 67.46-9.95 75.85-7.93 89.6-5.58 110.15-2.22" stroke="#54c45e" stroke-width="2" stroke-linejoin="round" fill="none"/><path d="M-1136.18-1270.02l-4.02.08" stroke="#54c45e" stroke-width="2" fill="none"/><path d="M119-1467.5v.97h-1.03v-1.94h1.05z" stroke="#54c45e" stroke-width=".05" fill="#54c45e"/><path d="M580-387.5C580-292.23 477.02-215 350-215c-127.03 0-230-77.23-230-172.5S222.97-560 350-560c127.02 0 230 77.23 230 172.5z" stroke="#fcce14" stroke-width="2" fill="#fff3d9"/><use xlink:href="#g" transform="matrix(1,0,0,1,120,-560) translate(129.04145833333334 159.47916666666669)"/><use xlink:href="#h" transform="matrix(1,0,0,1,120,-560) translate(60.27843749999998 224.01041666666669)"/><path d="M-1136.2-1269.98l26.3.55 25.86 1.62 24.66 2.58 23.64 3.5 22.78 4.33 22.08 5.2 21.5 6 21.06 6.84 20.74 7.7 20.53 8.64 20.43 9.62 20.48 10.7 20.64 11.93 20.97 13.3 21.46 14.93 22.2 16.86 23.2 19.2 24.63 22.2 26.7 26.17 29.8 31.78 35.15 40.8 46.94 59.4 217.62 294.14 35.15 40.8 29.83 31.8 26.7 26.15 24.62 22.2 23.2 19.2 22.2 16.87 21.46 14.92 20.98 13.3 20.64 11.93 20.47 10.7 20.43 9.62 20.53 8.63 20.73 7.7 21.05 6.85 21.5 6 22.09 5.2 22.78 4.33 23.64 3.5 24.66 2.58 25.87 1.63 26.3.55" stroke="#54c45e" stroke-width="2" stroke-linejoin="round" fill="none"/><path d="M-1136.18-1269.98l-4.02-.08" stroke="#54c45e" stroke-width="2" fill="none"/><path d="M119.02-388.48l-.02.98v.98h-1.03v-1.96z" stroke="#54c45e" stroke-width=".05" fill="#54c45e"/><path d="M1480-1467.5c0 95.27-102.97 172.5-230 172.5s-230-77.23-230-172.5 102.97-172.5 230-172.5 230 77.23 230 172.5z" stroke="#6db1ff" stroke-width="2" fill="#edf5ff"/><use xlink:href="#i" transform="matrix(1,0,0,1,1020,-1640) translate(40.486770833333345 191.82291666666669)"/><use xlink:href="#j" transform="matrix(1,0,0,1,1020,-1640) translate(279.9398958333333 191.82291666666669)"/><path d="M583.5-1467.5h23.06m23.06 0h46.1m23.06 0h46.12m23.05 0h46.1m23.07 0h46.1m23.07 0h46.1m23.05 0h23.06" stroke="#3a414a" stroke-width="5" stroke-linejoin="round" fill="none"/><path d="M583.57-1465.03h-2.62l.05-2.46-.03-2.47h2.6z" stroke="#3a414a" stroke-width=".05" fill="#3a414a"/><path d="M1014-1467.5l-13 7.5v-15z" stroke="#3a414a" stroke-width="5" fill="#3a414a"/><path d="M580-1047.5C580-952.23 477.02-875 350-875c-127.03 0-230-77.23-230-172.5S222.97-1220 350-1220c127.02 0 230 77.23 230 172.5z" stroke="#6db1ff" stroke-width="2" fill="#edf5ff"/><use xlink:href="#k" transform="matrix(1,0,0,1,120,-1220) translate(160.3695833333333 191.82291666666669)"/><path d="M1500-327.5c0 95.27-102.97 172.5-230 172.5s-230-77.23-230-172.5S1142.97-500 1270-500s230 77.23 230 172.5z" stroke="#635dff" stroke-width="2" fill="#edf5ff"/><use xlink:href="#l" transform="matrix(1,0,0,1,1040,-500) translate(26.372187500000006 159.47916666666669)"/><use xlink:href="#m" transform="matrix(1,0,0,1,1040,-500) translate(184.93989583333334 159.47916666666669)"/><use xlink:href="#n" transform="matrix(1,0,0,1,1040,-500) translate(339.5232291666667 159.47916666666669)"/><use xlink:href="#o" transform="matrix(1,0,0,1,1040,-500) translate(182.41385416666665 224.01041666666669)"/><path d="M583.5-1047.45l2.03.05 4.4.27 4.35.46 4.27.63 4.22.8 4.2 1 .5.13m22.57 8.78l2.33 1.22 4.43 2.56 4.54 2.88 4.67 3.25 4.84 3.65 5 4.15 5.23 4.7 5.5 5.4 1.66 1.77m15.75 18.44l1.14 1.44 7.13 9.83 7.8 11.75 8.62 14.26 1.82 3.33m11.37 21.43l7.75 15.65 12.6 28.4m9 22.54l9.58 24.34 7.28 21.15m7.9 22.95l15.77 45.9m7.65 23.03l15.25 46.07m7.62 23.03l15.25 46.08m7.63 23.03l14.05 42.44 1.4 3.55m8.9 22.57l7.36 18.7 11.53 25.98M898.98-448l2.63 5.3 9.73 17.72 8.63 14.26 3.16 4.77m14.1 19.74l4.26 5.4 6.16 7.13 5.8 6.18 5.5 5.4 5.2 4.7 5.02 4.15 2 1.52m20.5 12.94l.3.17 4.3 2.02 4.22 1.76 4.2 1.56 4.17 1.36 4.18 1.17 1.35.32" stroke="#3a414a" stroke-width="5" stroke-linejoin="round" fill="none"/><path d="M583.62-1049.92l-.1 4.95-2.57-.06.05-2.46-.03-2.48z" stroke="#3a414a" stroke-width=".05" fill="#3a414a"/><path d="M1030.97-328.46l-14.72 2.92 1.1-9.2z" stroke="#3a414a" stroke-width="5" fill="#3a414a"/><path d="M-1136.2-1269.98l98.9 2 82.2 5.12 70.3 7.36 62.52 9.2 58.03 11.07 56.98 13.37 61.6 17.24 92.93 30.5 180.18 61.23 61.6 17.26 57 13.37 58.02 11.06 62.52 9.2 70.3 7.36 82.2 5.12 98.92 2" stroke="#54c45e" stroke-width="2" stroke-linejoin="round" fill="none"/><path d="M-1136.18-1269.98l-4.02-.08" stroke="#54c45e" stroke-width="2" fill="none"/><path d="M119.02-1048.47l-.02.96v.97h-1.03v-1.94z" stroke="#54c45e" stroke-width=".05" fill="#54c45e"/><path d="M583.5-387.45l24.47.5m24.46.64l33.24 2.06 15.56 1.63m24.3 2.9l19.04 2.8 28.07 5.38 1.08.26m23.8 5.65l15.15 3.6 32.4 8.03m23.76 5.9l18.53 4.6 28.07 5.36 1.26.17m24.2 3.57l2.44.36 31 3.24 15.28.95m24.43 1.4l24.46.5" stroke="#3a414a" stroke-width="5" stroke-linejoin="round" fill="none"/><path d="M583.62-389.92l-.1 4.95-2.57-.06.05-2.47-.03-2.48z" stroke="#3a414a" stroke-width=".05" fill="#3a414a"/><path d="M1034-327.6l-13.14 7.24.3-15z" stroke="#3a414a" stroke-width="5" fill="#3a414a"/><path d="M-1116.2-10.02l21.6-.45 21.6-1.36 20.75-2.18 20.06-2.97 19.47-3.7 18.98-4.46 18.6-5.2 18.3-5.94 18.1-6.74 18-7.57 17.96-8.46 18.04-9.43 18.2-10.5 18.46-11.73 18.86-13.1 19.4-14.73 20.1-16.65 21.05-18.96 22.3-21.83 23.93-25.52 26.26-30.45 29.72-37.56 35.56-49.06 48.62-73.46 215-346.92 35.56-49.05 29.73-37.55 26.25-30.46 23.94-25.53 22.27-21.83 21.04-18.96 20.12-16.65 19.4-14.73 18.85-13.1 18.47-11.74 18.2-10.5 18.02-9.43 17.97-8.46 18-7.56 18.1-6.73 18.3-5.94 18.6-5.2 18.98-4.45 19.47-3.7 20.06-2.97 20.76-2.17 21.6-1.36 21.6-.45" stroke="#635dff" stroke-width="2" stroke-linejoin="round" fill="none"/><path d="M-1116.18-10.02l-4.02.08" stroke="#635dff" stroke-width="2" fill="none"/><path d="M119-1047.5v.97h-1.03v-1.94h1.05z" stroke="#635dff" stroke-width=".05" fill="#635dff"/><path d="M580 252.5C580 347.77 477.02 425 350 425c-127.03 0-230-77.23-230-172.5S222.97 80 350 80c127.02 0 230 77.23 230 172.5z" stroke="#fcce14" stroke-width="2" fill="#fff3d9"/><use xlink:href="#p" transform="matrix(1,0,0,1,120,80) translate(52.03625 191.82291666666669)"/><use xlink:href="#q" transform="matrix(1,0,0,1,120,80) translate(268.96333333333337 191.82291666666669)"/><path d="M-1116.2-9.98l82.4 1.68 70.58 4.4 61.43 6.43 54.96 8.1 50.6 9.64 48.1 11.28 47.75 13.34 50.7 16.48 62.82 23.45 238.36 96.3 50.68 16.48 47.75 13.35 48.13 11.28 50.58 9.64 54.97 8.1L-35 246.4l70.57 4.4L118 252.5" stroke="#635dff" stroke-width="2" stroke-linejoin="round" fill="none"/><path d="M-1116.18-9.98l-4.02-.08" stroke="#635dff" stroke-width="2" fill="none"/><path d="M119.02 251.53l-.02.97v.97h-1.03v-1.94z" stroke="#635dff" stroke-width=".05" fill="#635dff"/><path d="M583.5 252.45l3.1-.07 5.43-.34 5.3-.55 5.2-.78 5.1-.98.97-.22m24-7.92l5.03-2.36 5.08-2.66 5.17-2.98 5.27-3.34 5.4-3.76 5.55-4.22 5.75-4.76 4.53-4.1m17.55-18.2l3.86-4.5 7.56-9.55 8.24-11.35 9.08-13.7 1.06-1.75m12.82-21.82l8.34-15.2 14.76-29.83m10.25-23.14l11.42-25.78 8.56-20.73m9.65-23.4l19.3-46.8m9.67-23.4l19.3-46.78m9.67-23.4l6.8-16.5 14.54-29.37m12.16-22.2l.1-.2 10.26-16.96 9.08-13.7 8.24-11.34.08-.1m16.2-19.42l4.96-5.27 6.28-6.15 6-5.4 5.75-4.76 5.57-4.22 5.4-3.75 4.64-2.96m22.68-11.17l3.17-1.18 4.98-1.6 5-1.4 5.04-1.2 5.1-.97 1.13-.16" stroke="#3a414a" stroke-width="5" stroke-linejoin="round" fill="none"/><path d="M583.62 254.92l-2.67.06.05-2.47-.03-2.47 2.55-.06z" stroke="#3a414a" stroke-width=".05" fill="#3a414a"/><path d="M1034.02-327.1l-12.36 8.5-1.2-14.95z" stroke="#3a414a" stroke-width="5" fill="#3a414a"/><path d="M-1116.2-10.02l15.2-.32 15.68-.98 15.28-1.6 14.94-2.22 14.66-2.8 14.45-3.38 14.3-4 14.2-4.6 14.18-5.28 14.2-5.97 14.26-6.72 14.4-7.52 14.63-8.45 14.9-9.46 15.25-10.6 15.7-11.92 16.24-13.45 16.9-15.23 17.72-17.36 18.7-19.93 19.93-23.1 21.48-27.1 23.43-32.3 26.1-39.32L-689.7-333l35.74-65.18 47.4-95.88 262.25-585.26 35.76-65.2 29.83-49.33 26.06-39.3 23.44-32.3 21.47-27.12 19.92-23.1 18.7-19.94 17.72-17.37 16.9-15.23 16.24-13.45 15.7-11.92 15.25-10.6 14.9-9.46 14.63-8.45 14.4-7.53 14.28-6.73 14.2-5.97 14.17-5.27 14.2-4.62 14.3-3.98 14.45-3.4 14.66-2.78 14.93-2.2 15.3-1.62 15.7-.98h.2" stroke="#635dff" stroke-width="2" stroke-linejoin="round" fill="none"/><path d="M-1116.18-10.02l-4.02.08" stroke="#635dff" stroke-width="2" fill="none"/><path d="M117-1467.46l-12.83 7.77-.3-15z" stroke="#635dff" stroke-width="2" fill="#635dff"/><path d="M-3660-1914a6 6 0 0 1 6-6h1608a6 6 0 0 1 6 6v1100a6 6 0 0 1-6 6h-1608a6 6 0 0 1-6-6z" stroke="#000" stroke-width="2" fill-opacity="0"/><path d="M-3660-1807.2h1620" stroke="#000" stroke-width="2" fill="none"/><use xlink:href="#r" transform="matrix(1,0,0,1,-3652,-1912) translate(710.203125 77.6015625)"/><use xlink:href="#s" transform="matrix(1,0,0,1,-3648,-1799.203125) translate(0 230.7109375)"/><use xlink:href="#t" transform="matrix(1,0,0,1,-3648,-1799.203125) translate(90.859375 230.7109375)"/><use xlink:href="#u" transform="matrix(1,0,0,1,-3648,-1799.203125) translate(136.40625 230.7109375)"/><use xlink:href="#v" transform="matrix(1,0,0,1,-3648,-1799.203125) translate(464.21875 230.7109375)"/><use xlink:href="#w" transform="matrix(1,0,0,1,-3648,-1799.203125) translate(0 346.8671875)"/><use xlink:href="#t" transform="matrix(1,0,0,1,-3648,-1799.203125) translate(398.9453125 346.8671875)"/><use xlink:href="#x" transform="matrix(1,0,0,1,-3648,-1799.203125) translate(444.4921875 346.8671875)"/><use xlink:href="#y" transform="matrix(1,0,0,1,-3648,-1799.203125) translate(0 463.0234375)"/><use xlink:href="#t" transform="matrix(1,0,0,1,-3648,-1799.203125) translate(222.890625 463.0234375)"/><use xlink:href="#z" transform="matrix(1,0,0,1,-3648,-1799.203125) translate(268.4375 463.0234375)"/><use xlink:href="#v" transform="matrix(1,0,0,1,-3648,-1799.203125) translate(515.5078125 463.0234375)"/><use xlink:href="#A" transform="matrix(1,0,0,1,-3648,-1799.203125) translate(0 579.1796875)"/><use xlink:href="#x" transform="matrix(1,0,0,1,-3648,-1799.203125) translate(635.390625 579.1796875)"/><use xlink:href="#B" transform="matrix(1,0,0,1,-3648,-1799.203125) translate(0 695.3359375)"/><use xlink:href="#t" transform="matrix(1,0,0,1,-3648,-1799.203125) translate(165.2734375 695.3359375)"/><use xlink:href="#z" transform="matrix(1,0,0,1,-3648,-1799.203125) translate(210.8203125 695.3359375)"/><use xlink:href="#C" transform="matrix(1,0,0,1,-3648,-1799.203125) translate(457.890625 695.3359375)"/><use xlink:href="#D" transform="matrix(1,0,0,1,-3648,-1799.203125) translate(750.390625 695.3359375)"/><use xlink:href="#E" transform="matrix(1,0,0,1,-3648,-1799.203125) translate(795.9375 695.3359375)"/><use xlink:href="#F" transform="matrix(1,0,0,1,-3648,-1799.203125) translate(0 811.4921875)"/><path d="M-3660-134a6 6 0 0 1 6-6h1608a6 6 0 0 1 6 6v984a6 6 0 0 1-6 6h-1608a6 6 0 0 1-6-6z" stroke="#000" stroke-width="2" fill-opacity="0"/><path d="M-3660-27.2h1620" stroke="#000" stroke-width="2" fill="none"/><g><use xlink:href="#G" transform="matrix(1,0,0,1,-3652,-132) translate(552.1953125 77.6015625)"/></g><g><use xlink:href="#s" transform="matrix(1,0,0,1,-3648,-19.203125) translate(0 230.7890625)"/><use xlink:href="#t" transform="matrix(1,0,0,1,-3648,-19.203125) translate(90.859375 230.7890625)"/><use xlink:href="#u" transform="matrix(1,0,0,1,-3648,-19.203125) translate(136.40625 230.7890625)"/><use xlink:href="#v" transform="matrix(1,0,0,1,-3648,-19.203125) translate(464.21875 230.7890625)"/><use xlink:href="#H" transform="matrix(1,0,0,1,-3648,-19.203125) translate(0 346.9453125)"/><use xlink:href="#t" transform="matrix(1,0,0,1,-3648,-19.203125) translate(231.40625 346.9453125)"/><use xlink:href="#I" transform="matrix(1,0,0,1,-3648,-19.203125) translate(276.953125 346.9453125)"/><use xlink:href="#J" transform="matrix(1,0,0,1,-3648,-19.203125) translate(0 463.1015625)"/><use xlink:href="#t" transform="matrix(1,0,0,1,-3648,-19.203125) translate(214.5703125 463.1015625)"/><use xlink:href="#K" transform="matrix(1,0,0,1,-3648,-19.203125) translate(260.1171875 463.1015625)"/><use xlink:href="#L" transform="matrix(1,0,0,1,-3648,-19.203125) translate(0 579.2578125)"/><use xlink:href="#z" transform="matrix(1,0,0,1,-3648,-19.203125) translate(481.9140625 579.2578125)"/><use xlink:href="#M" transform="matrix(1,0,0,1,-3648,-19.203125) translate(728.984375 579.2578125)"/><use xlink:href="#D" transform="matrix(1,0,0,1,-3648,-19.203125) translate(1158.7109375 579.2578125)"/><use xlink:href="#N" transform="matrix(1,0,0,1,-3648,-19.203125) translate(1204.2578125 579.2578125)"/><use xlink:href="#O" transform="matrix(1,0,0,1,-3648,-19.203125) translate(0 695.4140625)"/><use xlink:href="#P" transform="matrix(1,0,0,1,-3648,-19.203125) translate(413.203125 695.4140625)"/></g><path d="M-2850-145.82v-633.2" stroke="#3a414a" stroke-width="10" stroke-linejoin="round" fill="none"/><path d="M-2845.03-141h-9.94v-4.95h9.94z" stroke="#3a414a" stroke-width=".05" fill="#3a414a"/><path d="M-2850-797l7.5 13h-15z" stroke="#3a414a" stroke-width="10" fill="#3a414a"/><defs><path d="M537 14c-226 0-379-139-379-422v-710h180v695c0 172 97 275 253 275 160 0 281-109 281-300v-670h181V0H879v-209C806-46 684 14 537 14" id="Q"/><path d="M538 24C308 24 148-78 108-271l171-41c32 123 123 178 257 178 156 0 256-77 256-169 0-77-54-128-164-154l-186-44c-203-48-300-148-300-305 0-192 176-326 414-326 230 0 351 112 402 269l-163 42c-31-80-94-158-238-158-133 0-233 69-233 162 0 83 57 129 188 160l169 40c203 48 298 149 298 302 0 196-179 339-441 339" id="R"/><path d="M628 24c-324 0-524-230-524-574 0-343 198-582 503-582 237 0 487 146 487 559v75H286c9 234 145 362 343 362 132 0 231-58 273-172l174 48C1024-91 857 24 628 24zM287-650h624c-17-190-120-322-304-322-192 0-309 151-320 322" id="S"/><path d="M158 0v-1118h174v172h12c41-113 157-188 290-188 26 0 70 2 91 3v181c-11-2-60-10-108-10-161 0-279 109-279 260V0H158" id="T"/><g id="a"><use transform="matrix(0.032552083333333336,0,0,0.032552083333333336,0,0)" xlink:href="#Q"/><use transform="matrix(0.032552083333333336,0,0,0.032552083333333336,39.42057291666667,0)" xlink:href="#R"/><use transform="matrix(0.032552083333333336,0,0,0.032552083333333336,74.609375,0)" xlink:href="#S"/><use transform="matrix(0.032552083333333336,0,0,0.032552083333333336,113.4765625,0)" xlink:href="#T"/></g><path d="M657 26c-323 0-524-166-541-416h195c15 169 171 246 346 246 202 0 356-106 356-265 5-203-294-238-475-293-239-73-380-191-380-389 0-252 224-419 512-419 294 0 499 171 508 396H992c-17-145-151-228-328-228-193 0-321 102-321 242 0 156 175 211 284 241l149 41c160 44 422 134 422 412 0 244-197 432-541 432" id="U"/><path d="M677 24c-213 0-288-135-325-197h-20V0H158v-1490h180v551h14c37-59 106-193 324-193 279 0 474 222 474 576 0 356-194 580-473 580zm-27-161c209 0 317-186 317-421 0-232-105-413-317-413-206 0-314 166-314 413 0 249 111 421 314 421" id="V"/><path d="M180 0v-1490h190v1322h690V0H180" id="W"/><path d="M577 24c-279 0-473-224-473-580 0-354 195-576 474-576 218 0 287 134 324 193h14v-551h180V0H922v-173h-20C865-111 790 24 577 24zm27-161c203 0 314-172 314-421 0-247-108-413-314-413-212 0-317 181-317 413 0 235 108 421 317 421" id="X"/><path d="M611 442c-248 0-391-105-460-228l146-94c47 65 117 165 314 165 178 0 307-82 307-266v-224h-17C863-141 792-18 576-18c-268 0-472-195-472-546 0-346 197-568 476-568 216 0 288 133 326 193h17v-179h175V29c0 289-215 413-487 413zm-5-620c203 0 314-146 314-390 0-237-108-403-314-403-213 0-319 180-319 403 0 230 109 390 319 390" id="Y"/><g id="b"><use transform="matrix(0.045572916666666664,0,0,0.045572916666666664,0,0)" xlink:href="#U"/><use transform="matrix(0.045572916666666664,0,0,0.045572916666666664,59.8828125,0)" xlink:href="#Q"/><use transform="matrix(0.045572916666666664,0,0,0.045572916666666664,115.07161458333333,0)" xlink:href="#V"/><use transform="matrix(0.045572916666666664,0,0,0.045572916666666664,172.22005208333331,0)" xlink:href="#W"/><use transform="matrix(0.045572916666666664,0,0,0.045572916666666664,224.99348958333331,0)" xlink:href="#S"/><use transform="matrix(0.045572916666666664,0,0,0.045572916666666664,279.4075520833333,0)" xlink:href="#X"/><use transform="matrix(0.045572916666666664,0,0,0.045572916666666664,336.5559895833333,0)" xlink:href="#Y"/><use transform="matrix(0.045572916666666664,0,0,0.045572916666666664,393.79557291666663,0)" xlink:href="#S"/><use transform="matrix(0.045572916666666664,0,0,0.045572916666666664,448.20963541666663,0)" xlink:href="#T"/></g><path d="M52 0l541-1490h220L1361 0h-200l-149-416H398L254 0H52zm404-582h497c-103-290-145-390-251-756-108 377-145 460-246 756" id="Z"/><path d="M180 0v-1490h510c348 0 508 209 508 474 0 266-160 477-507 477H370V0H180zm190-706h312c236 0 327-133 327-310 0-176-91-307-329-307H370v617" id="aa"/><path d="M370-1490V0H180v-1490h190" id="ab"/><g id="c"><use transform="matrix(0.045572916666666664,0,0,0.045572916666666664,0,0)" xlink:href="#Z"/><use transform="matrix(0.045572916666666664,0,0,0.045572916666666664,64.39453125,0)" xlink:href="#aa"/><use transform="matrix(0.045572916666666664,0,0,0.045572916666666664,124.00390625,0)" xlink:href="#ab"/></g><path d="M471 26C259 26 90-98 90-318c0-256 228-303 435-329 202-27 287-16 287-108 0-139-79-219-234-219-161 0-248 86-283 164l-173-57c86-203 278-265 451-265 150 0 419 46 419 395V0H815v-152h-12C765-73 660 26 471 26zm31-159c199 0 310-134 310-271v-155c-30 35-226 55-295 64-131 17-246 59-246 186 0 116 97 176 231 176" id="ac"/><path d="M158 0v-1118h175l1 205c55-151 181-225 313-225 147 0 245 90 285 228 53-141 190-228 352-228 194 0 352 125 352 384V0h-181v-749c0-161-105-225-225-225-151 0-243 103-243 244V0H807v-767c0-124-93-207-219-207-131 0-250 92-250 270V0H158" id="ad"/><path d="M158 0v-1118h180V0H158zm91-1301c-68 0-125-53-125-119s57-119 125-119c69 0 126 53 126 119s-57 119-126 119" id="ae"/><path d="M338-670V0H158v-1118h173l1 207c72-158 192-221 342-221 226 0 378 139 378 422V0H872v-695c0-172-96-275-252-275-161 0-282 109-282 300" id="af"/><g id="d"><use transform="matrix(0.032552083333333336,0,0,0.032552083333333336,0,0)" xlink:href="#ac"/><use transform="matrix(0.032552083333333336,0,0,0.032552083333333336,37.434895833333336,0)" xlink:href="#X"/><use transform="matrix(0.032552083333333336,0,0,0.032552083333333336,78.25520833333334,0)" xlink:href="#ad"/><use transform="matrix(0.032552083333333336,0,0,0.032552083333333336,136.65364583333334,0)" xlink:href="#ae"/><use transform="matrix(0.032552083333333336,0,0,0.032552083333333336,152.79947916666669,0)" xlink:href="#af"/></g><g id="e"><use transform="matrix(0.026041666666666668,0,0,0.026041666666666668,0,0)" xlink:href="#U"/><use transform="matrix(0.026041666666666668,0,0,0.026041666666666668,34.21875,0)" xlink:href="#ae"/><use transform="matrix(0.026041666666666668,0,0,0.026041666666666668,47.13541666666667,0)" xlink:href="#Y"/><use transform="matrix(0.026041666666666668,0,0,0.026041666666666668,79.84375,0)" xlink:href="#af"/></g><path d="M158 418v-1536h174v179h20c37-59 106-193 324-193 279 0 474 222 474 576 0 356-194 580-473 580-213 0-288-135-325-197h-14v591H158zm492-555c209 0 317-186 317-421 0-232-105-413-317-413-206 0-314 166-314 413 0 249 111 421 314 421" id="ag"/><g id="f"><use transform="matrix(0.026041666666666668,0,0,0.026041666666666668,0,0)" xlink:href="#Q"/><use transform="matrix(0.026041666666666668,0,0,0.026041666666666668,31.536458333333336,0)" xlink:href="#ag"/></g><g id="g"><use transform="matrix(0.026041666666666668,0,0,0.026041666666666668,0,0)" xlink:href="#ad"/><use transform="matrix(0.026041666666666668,0,0,0.026041666666666668,46.71875,0)" xlink:href="#ac"/><use transform="matrix(0.026041666666666668,0,0,0.026041666666666668,76.66666666666667,0)" xlink:href="#af"/><use transform="matrix(0.026041666666666668,0,0,0.026041666666666668,108.17708333333334,0)" xlink:href="#ac"/><use transform="matrix(0.026041666666666668,0,0,0.026041666666666668,138.125,0)" xlink:href="#Y"/><use transform="matrix(0.026041666666666668,0,0,0.026041666666666668,170.83333333333334,0)" xlink:href="#S"/></g><path d="M613 24c-304 0-509-231-509-576 0-350 205-580 509-580 216 0 392 114 453 309l-173 49c-33-115-133-197-280-197-223 0-326 196-326 419 0 220 103 415 326 415 150 0 252-85 285-206l172 49C1010-95 832 24 613 24" id="ah"/><path d="M598-1118v154H368v674c0 100 37 144 132 144 23 0 62-6 92-12L629-6c-37 13-88 20-134 20-193 0-307-107-307-290v-688H20v-154h168v-266h180v266h230" id="ai"/><path d="M613 24c-304 0-509-231-509-576 0-350 205-580 509-580 305 0 511 230 511 580 0 345-206 576-511 576zm0-161c226 0 329-195 329-415 0-222-103-419-329-419-223 0-326 196-326 419 0 220 103 415 326 415" id="aj"/><g id="h"><use transform="matrix(0.026041666666666668,0,0,0.026041666666666668,0,0)" xlink:href="#R"/><use transform="matrix(0.026041666666666668,0,0,0.026041666666666668,28.151041666666668,0)" xlink:href="#Q"/><use transform="matrix(0.026041666666666668,0,0,0.026041666666666668,59.6875,0)" xlink:href="#V"/><use transform="matrix(0.026041666666666668,0,0,0.026041666666666668,92.34375,0)" xlink:href="#R"/><use transform="matrix(0.026041666666666668,0,0,0.026041666666666668,120.49479166666667,0)" xlink:href="#ah"/><use transform="matrix(0.026041666666666668,0,0,0.026041666666666668,150.96354166666669,0)" xlink:href="#T"/><use transform="matrix(0.026041666666666668,0,0,0.026041666666666668,171.87500000000003,0)" xlink:href="#ae"/><use transform="matrix(0.026041666666666668,0,0,0.026041666666666668,184.79166666666669,0)" xlink:href="#ag"/><use transform="matrix(0.026041666666666668,0,0,0.026041666666666668,217.44791666666669,0)" xlink:href="#ai"/><use transform="matrix(0.026041666666666668,0,0,0.026041666666666668,234.89583333333334,0)" xlink:href="#ae"/><use transform="matrix(0.026041666666666668,0,0,0.026041666666666668,247.8125,0)" xlink:href="#aj"/><use transform="matrix(0.026041666666666668,0,0,0.026041666666666668,279.7916666666667,0)" xlink:href="#af"/><use transform="matrix(0.026041666666666668,0,0,0.026041666666666668,311.30208333333337,0)" xlink:href="#R"/></g><g id="i"><use transform="matrix(0.026041666666666668,0,0,0.026041666666666668,0,0)" xlink:href="#Y"/><use transform="matrix(0.026041666666666668,0,0,0.026041666666666668,32.708333333333336,0)" xlink:href="#S"/><use transform="matrix(0.026041666666666668,0,0,0.026041666666666668,63.802083333333336,0)" xlink:href="#af"/><use transform="matrix(0.026041666666666668,0,0,0.026041666666666668,95.3125,0)" xlink:href="#S"/><use transform="matrix(0.026041666666666668,0,0,0.026041666666666668,126.40625,0)" xlink:href="#T"/><use transform="matrix(0.026041666666666668,0,0,0.026041666666666668,146.484375,0)" xlink:href="#ac"/><use transform="matrix(0.026041666666666668,0,0,0.026041666666666668,176.43229166666666,0)" xlink:href="#ai"/><use transform="matrix(0.026041666666666668,0,0,0.026041666666666668,193.35937499999997,0)" xlink:href="#S"/></g><path d="M158 0v-1490h180v865h22l478-493h223L593-638 1096 0H865L456-523 338-412V0H158" id="ak"/><g id="j"><use transform="matrix(0.026041666666666668,0,0,0.026041666666666668,0,0)" xlink:href="#ai"/><use transform="matrix(0.026041666666666668,0,0,0.026041666666666668,16.927083333333336,0)" xlink:href="#aj"/><use transform="matrix(0.026041666666666668,0,0,0.026041666666666668,48.90625,0)" xlink:href="#ak"/><use transform="matrix(0.026041666666666668,0,0,0.026041666666666668,76.97916666666667,0)" xlink:href="#S"/><use transform="matrix(0.026041666666666668,0,0,0.026041666666666668,108.07291666666667,0)" xlink:href="#af"/></g><g id="k"><use transform="matrix(0.026041666666666668,0,0,0.026041666666666668,0,0)" xlink:href="#W"/><use transform="matrix(0.026041666666666668,0,0,0.026041666666666668,30.15625,0)" xlink:href="#aj"/><use transform="matrix(0.026041666666666668,0,0,0.026041666666666668,62.13541666666667,0)" xlink:href="#Y"/><use transform="matrix(0.026041666666666668,0,0,0.026041666666666668,94.84375,0)" xlink:href="#ae"/><use transform="matrix(0.026041666666666668,0,0,0.026041666666666668,107.76041666666667,0)" xlink:href="#af"/></g><path d="M481 0L54-1118h197c107 314 236 620 325 951 87-331 217-637 324-951h197L670 0H481" id="al"/><path d="M678-1118v154H420V0H240v-964H20v-154h220v-149c0-194 155-293 318-293 85 0 141 18 168 30l-50 154c-19-6-47-17-97-17-111 0-159 58-159 166v109h258" id="am"/><path d="M140 405l46-156c120 36 205 19 263-150l32-93L54-1118h197c107 313 237 620 324 950 87-331 219-637 326-950h196L606 167c-68 178-176 259-334 259-64 0-113-12-132-21" id="an"/><g id="l"><use transform="matrix(0.026041666666666668,0,0,0.026041666666666668,0,0)" xlink:href="#al"/><use transform="matrix(0.026041666666666668,0,0,0.026041666666666668,28.932291666666668,0)" xlink:href="#S"/><use transform="matrix(0.026041666666666668,0,0,0.026041666666666668,60.02604166666667,0)" xlink:href="#T"/><use transform="matrix(0.026041666666666668,0,0,0.026041666666666668,80.9375,0)" xlink:href="#ae"/><use transform="matrix(0.026041666666666668,0,0,0.026041666666666668,93.85416666666667,0)" xlink:href="#am"/><use transform="matrix(0.026041666666666668,0,0,0.026041666666666668,113.59375,0)" xlink:href="#an"/></g><g id="m"><use transform="matrix(0.026041666666666668,0,0,0.026041666666666668,0,0)" xlink:href="#ai"/><use transform="matrix(0.026041666666666668,0,0,0.026041666666666668,16.927083333333336,0)" xlink:href="#aj"/><use transform="matrix(0.026041666666666668,0,0,0.026041666666666668,48.90625,0)" xlink:href="#ak"/><use transform="matrix(0.026041666666666668,0,0,0.026041666666666668,76.97916666666667,0)" xlink:href="#S"/><use transform="matrix(0.026041666666666668,0,0,0.026041666666666668,108.07291666666667,0)" xlink:href="#af"/></g><g id="n"><use transform="matrix(0.026041666666666668,0,0,0.026041666666666668,0,0)" xlink:href="#ac"/><use transform="matrix(0.026041666666666668,0,0,0.026041666666666668,29.947916666666668,0)" xlink:href="#af"/><use transform="matrix(0.026041666666666668,0,0,0.026041666666666668,61.458333333333336,0)" xlink:href="#X"/></g><path d="M338-1490V0H158v-1490h180" id="ao"/><g id="o"><use transform="matrix(0.026041666666666668,0,0,0.026041666666666668,0,0)" xlink:href="#T"/><use transform="matrix(0.026041666666666668,0,0,0.026041666666666668,19.192708333333332,0)" xlink:href="#aj"/><use transform="matrix(0.026041666666666668,0,0,0.026041666666666668,51.171875,0)" xlink:href="#ao"/><use transform="matrix(0.026041666666666668,0,0,0.026041666666666668,64.08854166666667,0)" xlink:href="#S"/></g><g id="p"><use transform="matrix(0.026041666666666668,0,0,0.026041666666666668,0,0)" xlink:href="#ad"/><use transform="matrix(0.026041666666666668,0,0,0.026041666666666668,46.71875,0)" xlink:href="#ac"/><use transform="matrix(0.026041666666666668,0,0,0.026041666666666668,76.66666666666667,0)" xlink:href="#af"/><use transform="matrix(0.026041666666666668,0,0,0.026041666666666668,108.17708333333334,0)" xlink:href="#ac"/><use transform="matrix(0.026041666666666668,0,0,0.026041666666666668,138.125,0)" xlink:href="#Y"/><use transform="matrix(0.026041666666666668,0,0,0.026041666666666668,170.83333333333334,0)" xlink:href="#S"/></g><g id="q"><use transform="matrix(0.026041666666666668,0,0,0.026041666666666668,0,0)" xlink:href="#Q"/><use transform="matrix(0.026041666666666668,0,0,0.026041666666666668,31.536458333333336,0)" xlink:href="#R"/><use transform="matrix(0.026041666666666668,0,0,0.026041666666666668,59.6875,0)" xlink:href="#S"/><use transform="matrix(0.026041666666666668,0,0,0.026041666666666668,90.78125,0)" xlink:href="#T"/><use transform="matrix(0.026041666666666668,0,0,0.026041666666666668,110.859375,0)" xlink:href="#R"/></g><path d="M750 21c-371 0-615-218-615-544v-967h305v942c0 174 123 299 310 299s309-125 309-299v-942h306v967c0 326-247 544-615 544" id="ap"/><path d="M572 22C302 22 117-98 78-306l279-48c29 105 101 156 224 156 114 0 185-48 185-115 0-118-228-130-337-155-215-49-322-150-322-317 0-215 187-347 470-347 265 0 424 116 466 298l-266 47c-24-76-87-130-196-130-98 0-174 46-174 113 0 56 38 95 144 117l201 40c216 44 320 143 320 302 0 220-207 367-500 367" id="aq"/><path d="M633 22C291 22 81-200 81-553c0-345 210-579 537-579 292 0 525 185 525 567v84H378c7 183 109 277 260 277 105 0 184-46 216-132l272 51C1071-99 893 22 633 22zM380-669h474c-15-146-94-237-233-237-143 0-229 99-241 237" id="ar"/><path d="M128 0v-1118h290v195h12c54-169 184-238 367-200v268c-27-8-86-15-130-15-138 0-239 95-239 234V0H128" id="as"/><g id="r"><use transform="matrix(0.0390625,0,0,0.0390625,0,0)" xlink:href="#ap"/><use transform="matrix(0.0390625,0,0,0.0390625,58.5546875,0)" xlink:href="#aq"/><use transform="matrix(0.0390625,0,0,0.0390625,103.359375,0)" xlink:href="#ar"/><use transform="matrix(0.0390625,0,0,0.0390625,151.015625,0)" xlink:href="#as"/></g><g id="s"><use transform="matrix(0.0390625,0,0,0.0390625,0,0)" xlink:href="#ae"/><use transform="matrix(0.0390625,0,0,0.0390625,19.375,0)" xlink:href="#X"/></g><path d="M295 13c-75 0-135-60-135-135s60-135 135-135 135 60 135 135S370 13 295 13zm0-809c-75 0-135-60-135-135s60-135 135-135 135 60 135 135-60 135-135 135" id="at"/><use transform="matrix(0.0390625,0,0,0.0390625,0,0)" xlink:href="#at" id="t"/><path d="M157-1118h181V80c1 225-123 350-364 338V252c126 9 184-48 183-172v-1198zm91-183c-68 0-125-53-125-119s57-119 125-119c69 0 126 53 126 119s-57 119-126 119" id="au"/><g id="u"><use transform="matrix(0.0390625,0,0,0.0390625,0,0)" xlink:href="#aj"/><use transform="matrix(0.0390625,0,0,0.0390625,47.96875,0)" xlink:href="#V"/><use transform="matrix(0.0390625,0,0,0.0390625,96.953125,0)" xlink:href="#au"/><use transform="matrix(0.0390625,0,0,0.0390625,116.328125,0)" xlink:href="#S"/><use transform="matrix(0.0390625,0,0,0.0390625,162.96875,0)" xlink:href="#ah"/><use transform="matrix(0.0390625,0,0,0.0390625,208.671875,0)" xlink:href="#ai"/><use transform="matrix(0.0390625,0,0,0.0390625,234.84375,0)" xlink:href="#ab"/><use transform="matrix(0.0390625,0,0,0.0390625,256.328125,0)" xlink:href="#X"/></g><path d="M750 279c-286 0-388-117-388-391v-228c1-158-59-222-218-220v-182c158 3 218-60 218-218v-230c0-273 102-391 388-391v151c-169-1-222 74-222 243v286c0 117-37 206-205 240v20c168 35 205 125 205 242v284c0 169 52 245 222 245v149" id="av"/><path d="M123 279V130c170 0 222-76 222-245v-284c0-116 37-207 204-242v-20c-167-34-204-123-204-240v-286c0-168-52-243-222-243v-151c285 0 387 118 387 391v230c-1 158 57 219 219 219v180c-164 1-219 64-219 221v228c0 274-102 391-387 391" id="aw"/><g id="v"><use transform="matrix(0.0390625,0,0,0.0390625,0,0)" xlink:href="#av"/><use transform="matrix(0.0390625,0,0,0.0390625,34.1015625,0)" xlink:href="#ae"/><use transform="matrix(0.0390625,0,0,0.0390625,53.4765625,0)" xlink:href="#X"/><use transform="matrix(0.0390625,0,0,0.0390625,102.4609375,0)" xlink:href="#aw"/></g><g id="w"><use transform="matrix(0.0390625,0,0,0.0390625,0,0)" xlink:href="#Q"/><use transform="matrix(0.0390625,0,0,0.0390625,47.3046875,0)" xlink:href="#R"/><use transform="matrix(0.0390625,0,0,0.0390625,89.53125,0)" xlink:href="#S"/><use transform="matrix(0.0390625,0,0,0.0390625,136.171875,0)" xlink:href="#T"/><use transform="matrix(0.0390625,0,0,0.0390625,167.5390625,0)" xlink:href="#af"/><use transform="matrix(0.0390625,0,0,0.0390625,214.8046875,0)" xlink:href="#ac"/><use transform="matrix(0.0390625,0,0,0.0390625,259.7265625,0)" xlink:href="#ad"/><use transform="matrix(0.0390625,0,0,0.0390625,329.8046875,0)" xlink:href="#S"/></g><g id="x"><use transform="matrix(0.0390625,0,0,0.0390625,0,0)" xlink:href="#U"/><use transform="matrix(0.0390625,0,0,0.0390625,51.328125,0)" xlink:href="#ai"/><use transform="matrix(0.0390625,0,0,0.0390625,77.5,0)" xlink:href="#T"/><use transform="matrix(0.0390625,0,0,0.0390625,108.8671875,0)" xlink:href="#ae"/><use transform="matrix(0.0390625,0,0,0.0390625,128.2421875,0)" xlink:href="#af"/><use transform="matrix(0.0390625,0,0,0.0390625,175.5078125,0)" xlink:href="#Y"/></g><g id="y"><use transform="matrix(0.0390625,0,0,0.0390625,0,0)" xlink:href="#S"/><use transform="matrix(0.0390625,0,0,0.0390625,46.640625,0)" xlink:href="#ad"/><use transform="matrix(0.0390625,0,0,0.0390625,116.71875,0)" xlink:href="#ac"/><use transform="matrix(0.0390625,0,0,0.0390625,161.640625,0)" xlink:href="#ae"/><use transform="matrix(0.0390625,0,0,0.0390625,181.015625,0)" xlink:href="#ao"/></g><g id="z"><use transform="matrix(0.0390625,0,0,0.0390625,0,0)" xlink:href="#U"/><use transform="matrix(0.0390625,0,0,0.0390625,51.328125,0)" xlink:href="#ai"/><use transform="matrix(0.0390625,0,0,0.0390625,77.5,0)" xlink:href="#T"/><use transform="matrix(0.0390625,0,0,0.0390625,108.8671875,0)" xlink:href="#ae"/><use transform="matrix(0.0390625,0,0,0.0390625,128.2421875,0)" xlink:href="#af"/><use transform="matrix(0.0390625,0,0,0.0390625,175.5078125,0)" xlink:href="#Y"/></g><path d="M409 0L70-1118h191c89 329 165 560 243 925 75-353 154-601 240-925h192c85 325 161 564 235 922 77-354 157-598 244-922h191L1267 0h-179c-86-307-176-590-250-913C763-588 675-308 588 0H409" id="ax"/><path d="M934 0v166H0V0h934" id="ay"/><path d="M338-670V0H158v-1490h180v566c73-149 190-208 336-208 226 0 379 139 379 422V0H872v-695c0-172-96-275-252-275-161 0-282 109-282 300" id="az"/><g id="A"><use transform="matrix(0.0390625,0,0,0.0390625,0,0)" xlink:href="#ag"/><use transform="matrix(0.0390625,0,0,0.0390625,49.765625,0)" xlink:href="#ac"/><use transform="matrix(0.0390625,0,0,0.0390625,94.6875,0)" xlink:href="#R"/><use transform="matrix(0.0390625,0,0,0.0390625,136.9140625,0)" xlink:href="#R"/><use transform="matrix(0.0390625,0,0,0.0390625,179.140625,0)" xlink:href="#ax"/><use transform="matrix(0.0390625,0,0,0.0390625,243.1640625,0)" xlink:href="#aj"/><use transform="matrix(0.0390625,0,0,0.0390625,291.1328125,0)" xlink:href="#T"/><use transform="matrix(0.0390625,0,0,0.0390625,319.921875,0)" xlink:href="#X"/><use transform="matrix(0.0390625,0,0,0.0390625,368.90625,0)" xlink:href="#ay"/><use transform="matrix(0.0390625,0,0,0.0390625,408.0859375,0)" xlink:href="#az"/><use transform="matrix(0.0390625,0,0,0.0390625,455.390625,0)" xlink:href="#ac"/><use transform="matrix(0.0390625,0,0,0.0390625,500.3125,0)" xlink:href="#R"/><use transform="matrix(0.0390625,0,0,0.0390625,542.5390625,0)" xlink:href="#az"/><use transform="matrix(0.0390625,0,0,0.0390625,589.84375,0)" xlink:href="#at"/></g><g id="B"><use transform="matrix(0.0390625,0,0,0.0390625,0,0)" xlink:href="#T"/><use transform="matrix(0.0390625,0,0,0.0390625,28.7890625,0)" xlink:href="#aj"/><use transform="matrix(0.0390625,0,0,0.0390625,76.7578125,0)" xlink:href="#ao"/><use transform="matrix(0.0390625,0,0,0.0390625,96.1328125,0)" xlink:href="#S"/></g><path d="M226 279v-1860h398v153H398V126h226v153H226" id="aA"/><path d="M232-923l-22-567h194l-22 567H232zm340 0l-22-567h194l-22 567H572" id="aB"/><g id="C"><use transform="matrix(0.0390625,0,0,0.0390625,0,0)" xlink:href="#aA"/><use transform="matrix(0.0390625,0,0,0.0390625,29.1796875,0)" xlink:href="#aB"/><use transform="matrix(0.0390625,0,0,0.0390625,66.4453125,0)" xlink:href="#Q"/><use transform="matrix(0.0390625,0,0,0.0390625,113.75,0)" xlink:href="#R"/><use transform="matrix(0.0390625,0,0,0.0390625,155.9765625,0)" xlink:href="#S"/><use transform="matrix(0.0390625,0,0,0.0390625,202.6171875,0)" xlink:href="#T"/><use transform="matrix(0.0390625,0,0,0.0390625,232.734375,0)" xlink:href="#aB"/></g><path d="M128 359l88-567h206L266 359H128" id="aC"/><use transform="matrix(0.0390625,0,0,0.0390625,0,0)" xlink:href="#aC" id="D"/><path d="M123 279V126h226v-1554H123v-153h398V279H123" id="aD"/><g id="E"><use transform="matrix(0.0390625,0,0,0.0390625,0,0)" xlink:href="#aB"/><use transform="matrix(0.0390625,0,0,0.0390625,37.265625,0)" xlink:href="#ac"/><use transform="matrix(0.0390625,0,0,0.0390625,82.1875,0)" xlink:href="#X"/><use transform="matrix(0.0390625,0,0,0.0390625,131.171875,0)" xlink:href="#ad"/><use transform="matrix(0.0390625,0,0,0.0390625,201.25,0)" xlink:href="#ae"/><use transform="matrix(0.0390625,0,0,0.0390625,220.625,0)" xlink:href="#af"/><use transform="matrix(0.0390625,0,0,0.0390625,267.890625,0)" xlink:href="#aB"/><use transform="matrix(0.0390625,0,0,0.0390625,305.15625,0)" xlink:href="#aD"/></g><g id="F"><use transform="matrix(0.0390625,0,0,0.0390625,0,0)" xlink:href="#R"/><use transform="matrix(0.0390625,0,0,0.0390625,42.2265625,0)" xlink:href="#Q"/><use transform="matrix(0.0390625,0,0,0.0390625,89.53125,0)" xlink:href="#V"/><use transform="matrix(0.0390625,0,0,0.0390625,138.515625,0)" xlink:href="#R"/><use transform="matrix(0.0390625,0,0,0.0390625,180.7421875,0)" xlink:href="#ah"/><use transform="matrix(0.0390625,0,0,0.0390625,226.4453125,0)" xlink:href="#T"/><use transform="matrix(0.0390625,0,0,0.0390625,257.8125,0)" xlink:href="#ae"/><use transform="matrix(0.0390625,0,0,0.0390625,277.1875,0)" xlink:href="#ag"/><use transform="matrix(0.0390625,0,0,0.0390625,326.171875,0)" xlink:href="#ai"/><use transform="matrix(0.0390625,0,0,0.0390625,352.34375,0)" xlink:href="#ae"/><use transform="matrix(0.0390625,0,0,0.0390625,371.71875,0)" xlink:href="#aj"/><use transform="matrix(0.0390625,0,0,0.0390625,419.6875,0)" xlink:href="#af"/><use transform="matrix(0.0390625,0,0,0.0390625,466.953125,0)" xlink:href="#R"/><use transform="matrix(0.0390625,0,0,0.0390625,509.1796875,0)" xlink:href="#at"/><use transform="matrix(0.0390625,0,0,0.0390625,532.2265625,0)" xlink:href="#U"/><use transform="matrix(0.0390625,0,0,0.0390625,583.5546875,0)" xlink:href="#Q"/><use transform="matrix(0.0390625,0,0,0.0390625,630.859375,0)" xlink:href="#V"/><use transform="matrix(0.0390625,0,0,0.0390625,679.84375,0)" xlink:href="#R"/><use transform="matrix(0.0390625,0,0,0.0390625,722.0703125,0)" xlink:href="#ah"/><use transform="matrix(0.0390625,0,0,0.0390625,767.7734375,0)" xlink:href="#T"/><use transform="matrix(0.0390625,0,0,0.0390625,799.140625,0)" xlink:href="#ae"/><use transform="matrix(0.0390625,0,0,0.0390625,818.515625,0)" xlink:href="#ag"/><use transform="matrix(0.0390625,0,0,0.0390625,867.5,0)" xlink:href="#ai"/><use transform="matrix(0.0390625,0,0,0.0390625,893.671875,0)" xlink:href="#ae"/><use transform="matrix(0.0390625,0,0,0.0390625,913.046875,0)" xlink:href="#aj"/><use transform="matrix(0.0390625,0,0,0.0390625,961.015625,0)" xlink:href="#af"/><use transform="matrix(0.0390625,0,0,0.0390625,1008.28125,0)" xlink:href="#aA"/><use transform="matrix(0.0390625,0,0,0.0390625,1037.4609375,0)" xlink:href="#aD"/></g><path d="M681 22C323 22 94-145 85-462h297c10 151 131 226 296 226 163 0 271-77 271-190 0-102-95-149-257-189l-164-41c-252-61-403-188-403-405 0-269 236-449 560-449 330 0 546 183 551 445H941c-11-119-106-188-259-188-156 0-244 72-244 172-3 156 226 185 373 221 250 61 445 186 445 436 0 271-213 446-575 446" id="aE"/><path d="M513 14c-232 0-385-159-385-421v-711h300v659c0 139 76 222 202 222 127 0 217-86 217-234v-647h301V0H864l-4-232C797-74 683 14 513 14" id="aF"/><path d="M754 19C571 19 479-89 437-179h-14V0H128v-1490h300v560h9c41-89 129-202 319-202 248 0 453 193 453 575 0 372-197 576-455 576zm-92-241c156 0 240-139 240-336 0-196-83-334-240-334-154 0-241 131-241 334 0 202 88 336 241 336" id="aG"/><path d="M628 22C291 22 81-210 81-554c0-346 210-578 547-578 265 0 455 142 497 372l-279 52c-25-116-99-188-215-188-160 0-244 139-244 341 0 200 84 341 244 341 116 0 193-74 217-195l279 51C1085-123 896 22 628 22" id="aH"/><path d="M128 0v-1118h300V0H128zm150-1264c-91 0-165-68-165-154 0-85 74-154 165-154 90 0 165 69 165 154 0 86-75 154-165 154" id="aI"/><path d="M128 418v-1536h295v188h14c41-89 129-202 319-202 248 0 453 193 453 575 0 372-197 576-455 576-183 0-275-108-317-198h-9v597H128zm534-640c156 0 240-139 240-336 0-196-83-334-240-334-154 0-241 131-241 334 0 202 88 336 241 336" id="aJ"/><path d="M683-1118v229H474v562c0 71 29 104 102 104 23 0 73-7 95-13l43 225C647 9 580 16 520 16 296 16 174-96 174-301v-588H20v-229h154v-266h300v266h209" id="aK"/><path d="M628 22C291 22 81-210 81-554c0-346 210-578 547-578 336 0 547 232 547 578 0 344-211 576-547 576zm0-236c160 0 242-146 242-341 0-197-82-341-242-341S387-753 387-555c0 195 81 341 241 341" id="aL"/><path d="M428-647V0H128v-1118h283l4 231c63-156 176-245 348-245 232 0 384 159 384 421V0H847v-659c0-139-76-222-202-222-128 0-217 86-217 234" id="aM"/><g id="G"><use transform="matrix(0.0390625,0,0,0.0390625,0,0)" xlink:href="#aE"/><use transform="matrix(0.0390625,0,0,0.0390625,52.3828125,0)" xlink:href="#aF"/><use transform="matrix(0.0390625,0,0,0.0390625,102.1875,0)" xlink:href="#aG"/><use transform="matrix(0.0390625,0,0,0.0390625,152.6171875,0)" xlink:href="#aq"/><use transform="matrix(0.0390625,0,0,0.0390625,197.421875,0)" xlink:href="#aH"/><use transform="matrix(0.0390625,0,0,0.0390625,244.4921875,0)" xlink:href="#as"/><use transform="matrix(0.0390625,0,0,0.0390625,277.65625,0)" xlink:href="#aI"/><use transform="matrix(0.0390625,0,0,0.0390625,299.3359375,0)" xlink:href="#aJ"/><use transform="matrix(0.0390625,0,0,0.0390625,349.765625,0)" xlink:href="#aK"/><use transform="matrix(0.0390625,0,0,0.0390625,379.0625,0)" xlink:href="#aI"/><use transform="matrix(0.0390625,0,0,0.0390625,400.7421875,0)" xlink:href="#aL"/><use transform="matrix(0.0390625,0,0,0.0390625,449.8046875,0)" xlink:href="#aM"/></g><g id="H"><use transform="matrix(0.0390625,0,0,0.0390625,0,0)" xlink:href="#af"/><use transform="matrix(0.0390625,0,0,0.0390625,47.265625,0)" xlink:href="#ac"/><use transform="matrix(0.0390625,0,0,0.0390625,92.1875,0)" xlink:href="#ad"/><use transform="matrix(0.0390625,0,0,0.0390625,162.265625,0)" xlink:href="#S"/></g><g id="I"><use transform="matrix(0.0390625,0,0,0.0390625,0,0)" xlink:href="#U"/><use transform="matrix(0.0390625,0,0,0.0390625,51.328125,0)" xlink:href="#ai"/><use transform="matrix(0.0390625,0,0,0.0390625,77.5,0)" xlink:href="#T"/><use transform="matrix(0.0390625,0,0,0.0390625,108.8671875,0)" xlink:href="#ae"/><use transform="matrix(0.0390625,0,0,0.0390625,128.2421875,0)" xlink:href="#af"/><use transform="matrix(0.0390625,0,0,0.0390625,175.5078125,0)" xlink:href="#Y"/></g><g id="J"><use transform="matrix(0.0390625,0,0,0.0390625,0,0)" xlink:href="#ag"/><use transform="matrix(0.0390625,0,0,0.0390625,48.984375,0)" xlink:href="#T"/><use transform="matrix(0.0390625,0,0,0.0390625,80.3515625,0)" xlink:href="#ae"/><use transform="matrix(0.0390625,0,0,0.0390625,99.7265625,0)" xlink:href="#ah"/><use transform="matrix(0.0390625,0,0,0.0390625,145.4296875,0)" xlink:href="#S"/></g><g id="K"><use transform="matrix(0.0390625,0,0,0.0390625,0,0)" xlink:href="#ab"/><use transform="matrix(0.0390625,0,0,0.0390625,21.484375,0)" xlink:href="#af"/><use transform="matrix(0.0390625,0,0,0.0390625,68.75,0)" xlink:href="#ai"/></g><path d="M783 20c-382 0-661-292-661-764 0-473 279-766 661-766 302 0 548 182 601 489h-190c-42-204-217-313-411-313-268 0-476 208-476 590 0 381 209 588 476 588 195 0 369-110 411-313h190c-52 303-296 489-601 489" id="aN"/><g id="L"><use transform="matrix(0.0390625,0,0,0.0390625,0,0)" xlink:href="#V"/><use transform="matrix(0.0390625,0,0,0.0390625,48.984375,0)" xlink:href="#ae"/><use transform="matrix(0.0390625,0,0,0.0390625,68.359375,0)" xlink:href="#ao"/><use transform="matrix(0.0390625,0,0,0.0390625,87.734375,0)" xlink:href="#ao"/><use transform="matrix(0.0390625,0,0,0.0390625,107.109375,0)" xlink:href="#ae"/><use transform="matrix(0.0390625,0,0,0.0390625,126.484375,0)" xlink:href="#af"/><use transform="matrix(0.0390625,0,0,0.0390625,173.75,0)" xlink:href="#Y"/><use transform="matrix(0.0390625,0,0,0.0390625,222.8125,0)" xlink:href="#aN"/><use transform="matrix(0.0390625,0,0,0.0390625,281.25,0)" xlink:href="#an"/><use transform="matrix(0.0390625,0,0,0.0390625,324.6484375,0)" xlink:href="#ah"/><use transform="matrix(0.0390625,0,0,0.0390625,370.3515625,0)" xlink:href="#ao"/><use transform="matrix(0.0390625,0,0,0.0390625,389.7265625,0)" xlink:href="#S"/><use transform="matrix(0.0390625,0,0,0.0390625,436.3671875,0)" xlink:href="#at"/></g><g id="M"><use transform="matrix(0.0390625,0,0,0.0390625,0,0)" xlink:href="#aA"/><use transform="matrix(0.0390625,0,0,0.0390625,29.1796875,0)" xlink:href="#aB"/><use transform="matrix(0.0390625,0,0,0.0390625,66.4453125,0)" xlink:href="#ad"/><use transform="matrix(0.0390625,0,0,0.0390625,136.5234375,0)" xlink:href="#aj"/><use transform="matrix(0.0390625,0,0,0.0390625,184.4921875,0)" xlink:href="#af"/><use transform="matrix(0.0390625,0,0,0.0390625,231.7578125,0)" xlink:href="#ai"/><use transform="matrix(0.0390625,0,0,0.0390625,257.9296875,0)" xlink:href="#az"/><use transform="matrix(0.0390625,0,0,0.0390625,305.234375,0)" xlink:href="#ao"/><use transform="matrix(0.0390625,0,0,0.0390625,325,0)" xlink:href="#an"/><use transform="matrix(0.0390625,0,0,0.0390625,369.9609375,0)" xlink:href="#aB"/></g><g id="N"><use transform="matrix(0.0390625,0,0,0.0390625,0,0)" xlink:href="#aB"/><use transform="matrix(0.0390625,0,0,0.0390625,37.265625,0)" xlink:href="#an"/><use transform="matrix(0.0390625,0,0,0.0390625,80.6640625,0)" xlink:href="#S"/><use transform="matrix(0.0390625,0,0,0.0390625,128.0859375,0)" xlink:href="#ac"/><use transform="matrix(0.0390625,0,0,0.0390625,173.0078125,0)" xlink:href="#T"/><use transform="matrix(0.0390625,0,0,0.0390625,204.375,0)" xlink:href="#ao"/><use transform="matrix(0.0390625,0,0,0.0390625,224.140625,0)" xlink:href="#an"/><use transform="matrix(0.0390625,0,0,0.0390625,269.1015625,0)" xlink:href="#aB"/><use transform="matrix(0.0390625,0,0,0.0390625,306.3671875,0)" xlink:href="#aD"/></g><g id="O"><use transform="matrix(0.0390625,0,0,0.0390625,0,0)" xlink:href="#ah"/><use transform="matrix(0.0390625,0,0,0.0390625,45.703125,0)" xlink:href="#T"/><use transform="matrix(0.0390625,0,0,0.0390625,74.4921875,0)" xlink:href="#S"/><use transform="matrix(0.0390625,0,0,0.0390625,121.9140625,0)" xlink:href="#ac"/><use transform="matrix(0.0390625,0,0,0.0390625,166.8359375,0)" xlink:href="#ai"/><use transform="matrix(0.0390625,0,0,0.0390625,192.2265625,0)" xlink:href="#S"/><use transform="matrix(0.0390625,0,0,0.0390625,238.8671875,0)" xlink:href="#X"/><use transform="matrix(0.0390625,0,0,0.0390625,287.8515625,0)" xlink:href="#Z"/><use transform="matrix(0.0390625,0,0,0.0390625,341.484375,0)" xlink:href="#ai"/><use transform="matrix(0.0390625,0,0,0.0390625,367.65625,0)" xlink:href="#at"/></g><path d="M645 0H180v-1490h484c435 0 692 280 692 742 0 466-257 748-711 748zM370-168h263c363 0 539-218 539-580 0-358-176-574-521-574H370v1154" id="aO"/><g id="P"><use transform="matrix(0.0390625,0,0,0.0390625,0,0)" xlink:href="#aO"/><use transform="matrix(0.0390625,0,0,0.0390625,57.734375,0)" xlink:href="#ac"/><use transform="matrix(0.0390625,0,0,0.0390625,102.65625,0)" xlink:href="#ai"/><use transform="matrix(0.0390625,0,0,0.0390625,128.046875,0)" xlink:href="#S"/></g></defs></g></svg>