<svg xmlns="http://www.w3.org/2000/svg" xmlns:xlink="http://www.w3.org/1999/xlink" xmlns:lucid="lucid" width="3381" height="2962"><g transform="translate(1740 1961)" lucid:page-tab-id="0_0"><path d="M-5000-2000h7000v3000h-7000z" fill="#fff"/><path d="M0-1914a6 6 0 0 1 6-6h1588a6 6 0 0 1 6 6V954a6 6 0 0 1-6 6H6a6 6 0 0 1-6-6z" stroke="#000" stroke-width="2" fill="#dfe3e8"/><path d="M-1211.1-1510.42v-.7a68.9 68.9 0 0 1 68.88-68.88 68.9 68.9 0 0 1 68.9 68.9 68.9 68.9 0 0 1-68.9 68.88 68.9 68.9 0 0 1-68.9-68.9v-.68" stroke="#000" stroke-width="10" fill="#fff"/><path d="M-1280-1574a6 6 0 0 1 6-6h263.56a6 6 0 0 1 6 6v586a6 6 0 0 1-6 6H-1274a6 6 0 0 1-6-6z" fill="none"/><path d="M-1142.22-1442.22v221.02l137.78 239.2m-137.78-239.2L-1280-982m0-391.33h275.56" stroke="#000" stroke-width="10" fill="none"/><use xlink:href="#a" transform="matrix(1,0,0,1,-1360,-982.0000000000001) translate(148.712890625 64.58333333333334)"/><path d="M465.66-1894a6 6 0 0 1 6-6h656.68a6 6 0 0 1 6 6v110.94a6 6 0 0 1-6 6H471.66a6 6 0 0 1-6-6z" fill="none"/><use xlink:href="#b" transform="matrix(1,0,0,1,470.6623177083334,-1895) translate(0 90.45182291666666)"/><use xlink:href="#c" transform="matrix(1,0,0,1,470.6623177083334,-1895) translate(509.59635416666663 90.45182291666666)"/><path d="M-1191.1-250.42v-.7a68.9 68.9 0 0 1 68.88-68.88 68.9 68.9 0 0 1 68.9 68.9 68.9 68.9 0 0 1-68.9 68.88 68.9 68.9 0 0 1-68.9-68.9v-.68" stroke="#000" stroke-width="10" fill="#fff"/><path d="M-1260-314a6 6 0 0 1 6-6h263.56a6 6 0 0 1 6 6v586a6 6 0 0 1-6 6H-1254a6 6 0 0 1-6-6z" fill="none"/><path d="M-1122.22-182.22V38.8L-984.44 278m-137.78-239.2L-1260 278m0-391.33h275.56" stroke="#000" stroke-width="10" fill="none"/><use xlink:href="#d" transform="matrix(1,0,0,1,-1340,277.9999999999999) translate(121.90624999999999 64.58333333333334)"/><path d="M580-1467.5c0 95.27-102.98 172.5-230 172.5-127.03 0-230-77.23-230-172.5S222.97-1640 350-1640c127.02 0 230 77.23 230 172.5z" stroke="#6db1ff" stroke-width="2" fill="#edf5ff"/><use xlink:href="#e" transform="matrix(1,0,0,1,120,-1640) translate(134.7315625 191.82291666666669)"/><use xlink:href="#f" transform="matrix(1,0,0,1,120,-1640) translate(261.0857291666667 191.82291666666669)"/><path d="M-1136.2-1270.02l110.12-2.22 89.6-5.58 75.85-7.93 67.44-9.94 63.62-12.12 65.74-15.45 87.16-24.52 222.3-66.43 65.73-15.45 63.6-12.13 67.46-9.95 75.85-7.93 89.6-5.58 110.15-2.22" stroke="#54c45e" stroke-width="2" stroke-linejoin="round" fill="none"/><path d="M-1136.18-1270.02l-4.02.08" stroke="#54c45e" stroke-width="2" fill="none"/><path d="M119-1467.5v.97h-1.03v-1.94h1.05z" stroke="#54c45e" stroke-width=".05" fill="#54c45e"/><path d="M580-387.5C580-292.23 477.02-215 350-215c-127.03 0-230-77.23-230-172.5S222.97-560 350-560c127.02 0 230 77.23 230 172.5z" stroke="#fcce14" stroke-width="2" fill="#fff3d9"/><use xlink:href="#g" transform="matrix(1,0,0,1,120,-560) translate(129.04145833333334 159.47916666666669)"/><use xlink:href="#h" transform="matrix(1,0,0,1,120,-560) translate(60.27843749999998 224.01041666666669)"/><path d="M-1136.2-1269.98l26.3.55 25.86 1.62 24.66 2.58 23.64 3.5 22.78 4.33 22.08 5.2 21.5 6 21.06 6.84 20.74 7.7 20.53 8.64 20.43 9.62 20.48 10.7 20.64 11.93 20.97 13.3 21.46 14.93 22.2 16.86 23.2 19.2 24.63 22.2 26.7 26.17 29.8 31.78 35.15 40.8 46.94 59.4 217.62 294.14 35.15 40.8 29.83 31.8 26.7 26.15 24.62 22.2 23.2 19.2 22.2 16.87 21.46 14.92 20.98 13.3 20.64 11.93 20.47 10.7 20.43 9.62 20.53 8.63 20.73 7.7 21.05 6.85 21.5 6 22.09 5.2 22.78 4.33 23.64 3.5 24.66 2.58 25.87 1.63 26.3.55" stroke="#54c45e" stroke-width="2" stroke-linejoin="round" fill="none"/><path d="M-1136.18-1269.98l-4.02-.08" stroke="#54c45e" stroke-width="2" fill="none"/><path d="M119.02-388.48l-.02.98v.98h-1.03v-1.96z" stroke="#54c45e" stroke-width=".05" fill="#54c45e"/><path d="M580-1047.5C580-952.23 477.02-875 350-875c-127.03 0-230-77.23-230-172.5S222.97-1220 350-1220c127.02 0 230 77.23 230 172.5z" stroke="#6db1ff" stroke-width="2" fill="#edf5ff"/><use xlink:href="#i" transform="matrix(1,0,0,1,120,-1220) translate(160.3695833333333 191.82291666666669)"/><path d="M-1136.2-1269.98l98.9 2 82.2 5.12 70.3 7.36 62.52 9.2 58.03 11.07 56.98 13.37 61.6 17.24 92.93 30.5 180.18 61.23 61.6 17.26 57 13.37 58.02 11.06 62.52 9.2 70.3 7.36 82.2 5.12 98.92 2" stroke="#54c45e" stroke-width="2" stroke-linejoin="round" fill="none"/><path d="M-1136.18-1269.98l-4.02-.08" stroke="#54c45e" stroke-width="2" fill="none"/><path d="M119.02-1048.47l-.02.96v.97h-1.03v-1.94z" stroke="#54c45e" stroke-width=".05" fill="#54c45e"/><path d="M-1116.2-10.02l21.6-.45 21.6-1.36 20.75-2.18 20.06-2.97 19.47-3.7 18.98-4.46 18.6-5.2 18.3-5.94 18.1-6.74 18-7.57 17.96-8.46 18.04-9.43 18.2-10.5 18.46-11.73 18.86-13.1 19.4-14.73 20.1-16.65 21.05-18.96 22.3-21.83 23.93-25.52 26.26-30.45 29.72-37.56 35.56-49.06 48.62-73.46 215-346.92 35.56-49.05 29.73-37.55 26.25-30.46 23.94-25.53 22.27-21.83 21.04-18.96 20.12-16.65 19.4-14.73 18.85-13.1 18.47-11.74 18.2-10.5 18.02-9.43 17.97-8.46 18-7.56 18.1-6.73 18.3-5.94 18.6-5.2 18.98-4.45 19.47-3.7 20.06-2.97 20.76-2.17 21.6-1.36 21.6-.45" stroke="#635dff" stroke-width="2" stroke-linejoin="round" fill="none"/><path d="M-1116.18-10.02l-4.02.08" stroke="#635dff" stroke-width="2" fill="none"/><path d="M119-1047.5v.97h-1.03v-1.94h1.05z" stroke="#635dff" stroke-width=".05" fill="#635dff"/><path d="M580 252.5C580 347.77 477.02 425 350 425c-127.03 0-230-77.23-230-172.5S222.97 80 350 80c127.02 0 230 77.23 230 172.5z" stroke="#fcce14" stroke-width="2" fill="#fff3d9"/><use xlink:href="#j" transform="matrix(1,0,0,1,120,80) translate(52.03625 191.82291666666669)"/><use xlink:href="#k" transform="matrix(1,0,0,1,120,80) translate(268.96333333333337 191.82291666666669)"/><path d="M-1116.2-9.98l82.4 1.68 70.58 4.4 61.43 6.43 54.96 8.1 50.6 9.64 48.1 11.28 47.75 13.34 50.7 16.48 62.82 23.45 238.36 96.3 50.68 16.48 47.75 13.35 48.13 11.28 50.58 9.64 54.97 8.1L-35 246.4l70.57 4.4L118 252.5" stroke="#635dff" stroke-width="2" stroke-linejoin="round" fill="none"/><path d="M-1116.18-9.98l-4.02-.08" stroke="#635dff" stroke-width="2" fill="none"/><path d="M119.02 251.53l-.02.97v.97h-1.03v-1.94z" stroke="#635dff" stroke-width=".05" fill="#635dff"/><path d="M-1116.2-10.02l15.2-.32 15.68-.98 15.28-1.6 14.94-2.22 14.66-2.8 14.45-3.38 14.3-4 14.2-4.6 14.18-5.28 14.2-5.97 14.26-6.72 14.4-7.52 14.63-8.45 14.9-9.46 15.25-10.6 15.7-11.92 16.24-13.45 16.9-15.23 17.72-17.36 18.7-19.93 19.93-23.1 21.48-27.1 23.43-32.3 26.1-39.32L-689.7-333l35.74-65.18 47.4-95.88 262.25-585.26 35.76-65.2 29.83-49.33 26.06-39.3 23.44-32.3 21.47-27.12 19.92-23.1 18.7-19.94 17.72-17.37 16.9-15.23 16.24-13.45 15.7-11.92 15.25-10.6 14.9-9.46 14.63-8.45 14.4-7.53 14.28-6.73 14.2-5.97 14.17-5.27 14.2-4.62 14.3-3.98 14.45-3.4 14.66-2.78 14.93-2.2 15.3-1.62 15.7-.98h.2" stroke="#635dff" stroke-width="2" stroke-linejoin="round" fill="none"/><path d="M-1116.18-10.02l-4.02.08" stroke="#635dff" stroke-width="2" fill="none"/><path d="M117-1467.46l-12.83 7.77-.3-15z" stroke="#635dff" stroke-width="2" fill="#635dff"/><defs><path d="M537 14c-226 0-379-139-379-422v-710h180v695c0 172 97 275 253 275 160 0 281-109 281-300v-670h181V0H879v-209C806-46 684 14 537 14" id="l"/><path d="M538 24C308 24 148-78 108-271l171-41c32 123 123 178 257 178 156 0 256-77 256-169 0-77-54-128-164-154l-186-44c-203-48-300-148-300-305 0-192 176-326 414-326 230 0 351 112 402 269l-163 42c-31-80-94-158-238-158-133 0-233 69-233 162 0 83 57 129 188 160l169 40c203 48 298 149 298 302 0 196-179 339-441 339" id="m"/><path d="M628 24c-324 0-524-230-524-574 0-343 198-582 503-582 237 0 487 146 487 559v75H286c9 234 145 362 343 362 132 0 231-58 273-172l174 48C1024-91 857 24 628 24zM287-650h624c-17-190-120-322-304-322-192 0-309 151-320 322" id="n"/><path d="M158 0v-1118h174v172h12c41-113 157-188 290-188 26 0 70 2 91 3v181c-11-2-60-10-108-10-161 0-279 109-279 260V0H158" id="o"/><g id="a"><use transform="matrix(0.032552083333333336,0,0,0.032552083333333336,0,0)" xlink:href="#l"/><use transform="matrix(0.032552083333333336,0,0,0.032552083333333336,39.42057291666667,0)" xlink:href="#m"/><use transform="matrix(0.032552083333333336,0,0,0.032552083333333336,74.609375,0)" xlink:href="#n"/><use transform="matrix(0.032552083333333336,0,0,0.032552083333333336,113.4765625,0)" xlink:href="#o"/></g><path d="M657 26c-323 0-524-166-541-416h195c15 169 171 246 346 246 202 0 356-106 356-265 5-203-294-238-475-293-239-73-380-191-380-389 0-252 224-419 512-419 294 0 499 171 508 396H992c-17-145-151-228-328-228-193 0-321 102-321 242 0 156 175 211 284 241l149 41c160 44 422 134 422 412 0 244-197 432-541 432" id="p"/><path d="M677 24c-213 0-288-135-325-197h-20V0H158v-1490h180v551h14c37-59 106-193 324-193 279 0 474 222 474 576 0 356-194 580-473 580zm-27-161c209 0 317-186 317-421 0-232-105-413-317-413-206 0-314 166-314 413 0 249 111 421 314 421" id="q"/><path d="M180 0v-1490h190v1322h690V0H180" id="r"/><path d="M577 24c-279 0-473-224-473-580 0-354 195-576 474-576 218 0 287 134 324 193h14v-551h180V0H922v-173h-20C865-111 790 24 577 24zm27-161c203 0 314-172 314-421 0-247-108-413-314-413-212 0-317 181-317 413 0 235 108 421 317 421" id="s"/><path d="M611 442c-248 0-391-105-460-228l146-94c47 65 117 165 314 165 178 0 307-82 307-266v-224h-17C863-141 792-18 576-18c-268 0-472-195-472-546 0-346 197-568 476-568 216 0 288 133 326 193h17v-179h175V29c0 289-215 413-487 413zm-5-620c203 0 314-146 314-390 0-237-108-403-314-403-213 0-319 180-319 403 0 230 109 390 319 390" id="t"/><g id="b"><use transform="matrix(0.045572916666666664,0,0,0.045572916666666664,0,0)" xlink:href="#p"/><use transform="matrix(0.045572916666666664,0,0,0.045572916666666664,59.8828125,0)" xlink:href="#l"/><use transform="matrix(0.045572916666666664,0,0,0.045572916666666664,115.07161458333333,0)" xlink:href="#q"/><use transform="matrix(0.045572916666666664,0,0,0.045572916666666664,172.22005208333331,0)" xlink:href="#r"/><use transform="matrix(0.045572916666666664,0,0,0.045572916666666664,224.99348958333331,0)" xlink:href="#n"/><use transform="matrix(0.045572916666666664,0,0,0.045572916666666664,279.4075520833333,0)" xlink:href="#s"/><use transform="matrix(0.045572916666666664,0,0,0.045572916666666664,336.5559895833333,0)" xlink:href="#t"/><use transform="matrix(0.045572916666666664,0,0,0.045572916666666664,393.79557291666663,0)" xlink:href="#n"/><use transform="matrix(0.045572916666666664,0,0,0.045572916666666664,448.20963541666663,0)" xlink:href="#o"/></g><path d="M52 0l541-1490h220L1361 0h-200l-149-416H398L254 0H52zm404-582h497c-103-290-145-390-251-756-108 377-145 460-246 756" id="u"/><path d="M180 0v-1490h510c348 0 508 209 508 474 0 266-160 477-507 477H370V0H180zm190-706h312c236 0 327-133 327-310 0-176-91-307-329-307H370v617" id="v"/><path d="M370-1490V0H180v-1490h190" id="w"/><g id="c"><use transform="matrix(0.045572916666666664,0,0,0.045572916666666664,0,0)" xlink:href="#u"/><use transform="matrix(0.045572916666666664,0,0,0.045572916666666664,64.39453125,0)" xlink:href="#v"/><use transform="matrix(0.045572916666666664,0,0,0.045572916666666664,124.00390625,0)" xlink:href="#w"/></g><path d="M471 26C259 26 90-98 90-318c0-256 228-303 435-329 202-27 287-16 287-108 0-139-79-219-234-219-161 0-248 86-283 164l-173-57c86-203 278-265 451-265 150 0 419 46 419 395V0H815v-152h-12C765-73 660 26 471 26zm31-159c199 0 310-134 310-271v-155c-30 35-226 55-295 64-131 17-246 59-246 186 0 116 97 176 231 176" id="x"/><path d="M158 0v-1118h175l1 205c55-151 181-225 313-225 147 0 245 90 285 228 53-141 190-228 352-228 194 0 352 125 352 384V0h-181v-749c0-161-105-225-225-225-151 0-243 103-243 244V0H807v-767c0-124-93-207-219-207-131 0-250 92-250 270V0H158" id="y"/><path d="M158 0v-1118h180V0H158zm91-1301c-68 0-125-53-125-119s57-119 125-119c69 0 126 53 126 119s-57 119-126 119" id="z"/><path d="M338-670V0H158v-1118h173l1 207c72-158 192-221 342-221 226 0 378 139 378 422V0H872v-695c0-172-96-275-252-275-161 0-282 109-282 300" id="A"/><g id="d"><use transform="matrix(0.032552083333333336,0,0,0.032552083333333336,0,0)" xlink:href="#x"/><use transform="matrix(0.032552083333333336,0,0,0.032552083333333336,37.434895833333336,0)" xlink:href="#s"/><use transform="matrix(0.032552083333333336,0,0,0.032552083333333336,78.25520833333334,0)" xlink:href="#y"/><use transform="matrix(0.032552083333333336,0,0,0.032552083333333336,136.65364583333334,0)" xlink:href="#z"/><use transform="matrix(0.032552083333333336,0,0,0.032552083333333336,152.79947916666669,0)" xlink:href="#A"/></g><g id="e"><use transform="matrix(0.026041666666666668,0,0,0.026041666666666668,0,0)" xlink:href="#p"/><use transform="matrix(0.026041666666666668,0,0,0.026041666666666668,34.21875,0)" xlink:href="#z"/><use transform="matrix(0.026041666666666668,0,0,0.026041666666666668,47.13541666666667,0)" xlink:href="#t"/><use transform="matrix(0.026041666666666668,0,0,0.026041666666666668,79.84375,0)" xlink:href="#A"/></g><path d="M158 418v-1536h174v179h20c37-59 106-193 324-193 279 0 474 222 474 576 0 356-194 580-473 580-213 0-288-135-325-197h-14v591H158zm492-555c209 0 317-186 317-421 0-232-105-413-317-413-206 0-314 166-314 413 0 249 111 421 314 421" id="B"/><g id="f"><use transform="matrix(0.026041666666666668,0,0,0.026041666666666668,0,0)" xlink:href="#l"/><use transform="matrix(0.026041666666666668,0,0,0.026041666666666668,31.536458333333336,0)" xlink:href="#B"/></g><g id="g"><use transform="matrix(0.026041666666666668,0,0,0.026041666666666668,0,0)" xlink:href="#y"/><use transform="matrix(0.026041666666666668,0,0,0.026041666666666668,46.71875,0)" xlink:href="#x"/><use transform="matrix(0.026041666666666668,0,0,0.026041666666666668,76.66666666666667,0)" xlink:href="#A"/><use transform="matrix(0.026041666666666668,0,0,0.026041666666666668,108.17708333333334,0)" xlink:href="#x"/><use transform="matrix(0.026041666666666668,0,0,0.026041666666666668,138.125,0)" xlink:href="#t"/><use transform="matrix(0.026041666666666668,0,0,0.026041666666666668,170.83333333333334,0)" xlink:href="#n"/></g><path d="M613 24c-304 0-509-231-509-576 0-350 205-580 509-580 216 0 392 114 453 309l-173 49c-33-115-133-197-280-197-223 0-326 196-326 419 0 220 103 415 326 415 150 0 252-85 285-206l172 49C1010-95 832 24 613 24" id="C"/><path d="M598-1118v154H368v674c0 100 37 144 132 144 23 0 62-6 92-12L629-6c-37 13-88 20-134 20-193 0-307-107-307-290v-688H20v-154h168v-266h180v266h230" id="D"/><path d="M613 24c-304 0-509-231-509-576 0-350 205-580 509-580 305 0 511 230 511 580 0 345-206 576-511 576zm0-161c226 0 329-195 329-415 0-222-103-419-329-419-223 0-326 196-326 419 0 220 103 415 326 415" id="E"/><g id="h"><use transform="matrix(0.026041666666666668,0,0,0.026041666666666668,0,0)" xlink:href="#m"/><use transform="matrix(0.026041666666666668,0,0,0.026041666666666668,28.151041666666668,0)" xlink:href="#l"/><use transform="matrix(0.026041666666666668,0,0,0.026041666666666668,59.6875,0)" xlink:href="#q"/><use transform="matrix(0.026041666666666668,0,0,0.026041666666666668,92.34375,0)" xlink:href="#m"/><use transform="matrix(0.026041666666666668,0,0,0.026041666666666668,120.49479166666667,0)" xlink:href="#C"/><use transform="matrix(0.026041666666666668,0,0,0.026041666666666668,150.96354166666669,0)" xlink:href="#o"/><use transform="matrix(0.026041666666666668,0,0,0.026041666666666668,171.87500000000003,0)" xlink:href="#z"/><use transform="matrix(0.026041666666666668,0,0,0.026041666666666668,184.79166666666669,0)" xlink:href="#B"/><use transform="matrix(0.026041666666666668,0,0,0.026041666666666668,217.44791666666669,0)" xlink:href="#D"/><use transform="matrix(0.026041666666666668,0,0,0.026041666666666668,234.89583333333334,0)" xlink:href="#z"/><use transform="matrix(0.026041666666666668,0,0,0.026041666666666668,247.8125,0)" xlink:href="#E"/><use transform="matrix(0.026041666666666668,0,0,0.026041666666666668,279.7916666666667,0)" xlink:href="#A"/><use transform="matrix(0.026041666666666668,0,0,0.026041666666666668,311.30208333333337,0)" xlink:href="#m"/></g><g id="i"><use transform="matrix(0.026041666666666668,0,0,0.026041666666666668,0,0)" xlink:href="#r"/><use transform="matrix(0.026041666666666668,0,0,0.026041666666666668,30.15625,0)" xlink:href="#E"/><use transform="matrix(0.026041666666666668,0,0,0.026041666666666668,62.13541666666667,0)" xlink:href="#t"/><use transform="matrix(0.026041666666666668,0,0,0.026041666666666668,94.84375,0)" xlink:href="#z"/><use transform="matrix(0.026041666666666668,0,0,0.026041666666666668,107.76041666666667,0)" xlink:href="#A"/></g><g id="j"><use transform="matrix(0.026041666666666668,0,0,0.026041666666666668,0,0)" xlink:href="#y"/><use transform="matrix(0.026041666666666668,0,0,0.026041666666666668,46.71875,0)" xlink:href="#x"/><use transform="matrix(0.026041666666666668,0,0,0.026041666666666668,76.66666666666667,0)" xlink:href="#A"/><use transform="matrix(0.026041666666666668,0,0,0.026041666666666668,108.17708333333334,0)" xlink:href="#x"/><use transform="matrix(0.026041666666666668,0,0,0.026041666666666668,138.125,0)" xlink:href="#t"/><use transform="matrix(0.026041666666666668,0,0,0.026041666666666668,170.83333333333334,0)" xlink:href="#n"/></g><g id="k"><use transform="matrix(0.026041666666666668,0,0,0.026041666666666668,0,0)" xlink:href="#l"/><use transform="matrix(0.026041666666666668,0,0,0.026041666666666668,31.536458333333336,0)" xlink:href="#m"/><use transform="matrix(0.026041666666666668,0,0,0.026041666666666668,59.6875,0)" xlink:href="#n"/><use transform="matrix(0.026041666666666668,0,0,0.026041666666666668,90.78125,0)" xlink:href="#o"/><use transform="matrix(0.026041666666666668,0,0,0.026041666666666668,110.859375,0)" xlink:href="#m"/></g></defs></g></svg>